<?xml version="1.0" encoding="UTF-8" standalone="no"?>
<!-- Created with Inkscape (http://www.inkscape.org/) -->

<svg
   xmlns:dc="http://purl.org/dc/elements/1.1/"
   xmlns:cc="http://creativecommons.org/ns#"
   xmlns:rdf="http://www.w3.org/1999/02/22-rdf-syntax-ns#"
   xmlns:svg="http://www.w3.org/2000/svg"
   xmlns="http://www.w3.org/2000/svg"
   xmlns:sodipodi="http://sodipodi.sourceforge.net/DTD/sodipodi-0.dtd"
   xmlns:inkscape="http://www.inkscape.org/namespaces/inkscape"
   width="23.712526mm"
   height="23.78256mm"
   viewBox="0 0 23.712526 23.782561"
   version="1.1"
   id="svg8"
   sodipodi:docname="add.svg"
   inkscape:version="0.92.3 (2405546, 2018-03-11)">
  <defs
     id="defs2" />
  <sodipodi:namedview
     id="base"
     pagecolor="#ffffff"
     bordercolor="#666666"
     borderopacity="1.0"
     inkscape:pageopacity="0.0"
     inkscape:pageshadow="2"
     inkscape:zoom="5.6"
     inkscape:cx="83.690559"
     inkscape:cy="53.650107"
     inkscape:document-units="mm"
     inkscape:current-layer="layer1"
     showgrid="false"
     inkscape:window-width="1536"
     inkscape:window-height="801"
     inkscape:window-x="-8"
     inkscape:window-y="-8"
     inkscape:window-maximized="1"
     fit-margin-top="0"
     fit-margin-left="0"
     fit-margin-right="0"
     fit-margin-bottom="0" />
  <metadata
     id="metadata5">
    <rdf:RDF>
      <cc:Work
         rdf:about="">
        <dc:format>image/svg+xml</dc:format>
        <dc:type
           rdf:resource="http://purl.org/dc/dcmitype/StillImage" />
        <dc:title></dc:title>
      </cc:Work>
    </rdf:RDF>
  </metadata>
  <g
     inkscape:label="Layer 1"
     inkscape:groupmode="layer"
     id="layer1"
     transform="translate(-171.40145,-248.54278)">
    <path
       style="fill:#000000;stroke-width:1"
       d="m 182.26335,272.25534 c -2.21266,-0.28173 -3.14743,-0.55536 -4.76179,-1.39391 -1.19279,-0.61956 -2.25163,-1.4127 -2.61106,-1.95583 -0.12995,-0.19637 -0.41614,-0.53691 -0.63599,-0.75675 -0.89431,-0.89432 -2.04947,-2.94659 -2.46387,-4.37735 -0.30934,-1.06806 -0.39379,-1.71296 -0.38577,-2.94606 0.004,-0.59957 0.003,-1.33533 -0.003,-1.63501 -0.006,-0.29969 0.0534,-0.79009 0.13094,-1.08977 0.78512,-3.03435 2.05008,-5.11499 4.12484,-6.78469 0.92326,-0.74301 1.76257,-1.23167 3.09083,-1.79953 1.44803,-0.61905 2.1939,-0.80456 3.23484,-0.80456 0.49404,0 0.82488,-0.0336 0.82488,-0.0838 0,-0.13511 1.43768,-0.10153 1.84775,0.0432 0.19796,0.0698 0.76493,0.1985 1.25994,0.28591 0.61881,0.10927 1.17099,0.27589 1.76729,0.53328 0.47699,0.2059 1.01815,0.42179 1.20258,0.47976 0.19048,0.0599 0.43875,0.22878 0.57479,0.39104 0.13171,0.1571 0.49491,0.41427 0.8071,0.57149 1.01416,0.51072 2.6297,2.43575 3.56208,4.24447 0.79911,1.5502 1.14548,2.84501 1.26425,4.72609 0.0691,1.09382 -0.0366,2.01282 -0.38388,3.33912 -0.48092,1.83666 -0.66154,2.35248 -0.88049,2.51462 -0.11415,0.0845 -0.20755,0.2115 -0.20755,0.28217 0,0.0707 -0.12697,0.30328 -0.28215,0.51693 -0.15518,0.21365 -0.32543,0.52256 -0.37833,0.68647 -0.14265,0.44198 -1.36317,1.77109 -2.37454,2.5858 -1.11771,0.90039 -2.75605,1.75477 -4.04054,2.10712 -1.29433,0.35506 -3.00401,0.48273 -4.28319,0.31986 z m 2.00058,-5.6941 c 0.21162,-0.16646 0.22082,-0.20773 0.2196,-0.98498 -6.7e-4,-0.44619 -0.0761,-1.22316 -0.16765,-1.7266 -0.20169,-1.10956 -0.20686,-1.40504 -0.0311,-1.77544 l 0.13529,-0.28511 h 3.45634 c 3.98146,0 3.64344,0.0774 3.86911,-0.88647 0.0748,-0.31929 0.20342,-0.81685 0.28592,-1.10568 0.14839,-0.5195 0.14816,-0.52612 -0.0211,-0.61672 -0.32678,-0.17489 -1.12031,-0.17313 -2.5128,0.006 -1.87261,0.24032 -3.80828,0.26885 -4.39293,0.0648 -0.80864,-0.28231 -0.95569,-0.62634 -0.95367,-2.23123 0.001,-0.86073 0.0418,-1.2942 0.16622,-1.76884 0.0906,-0.34579 0.16543,-0.67097 0.16622,-0.72261 0.002,-0.12505 -1.83898,-0.40099 -2.28026,-0.3418 -0.61127,0.082 -0.59332,-0.12581 -0.27308,3.16012 0.0696,0.71464 0.12598,1.45735 0.12519,1.65048 -0.001,0.34902 -0.004,0.35143 -0.35771,0.40145 -0.19595,0.0277 -1.73315,-9.7e-4 -3.416,-0.0637 -1.86669,-0.0695 -3.14798,-0.0845 -3.28605,-0.0385 -0.14595,0.0487 -0.28572,0.19964 -0.39364,0.42507 -0.19439,0.40604 -0.36881,1.32757 -0.32942,1.74042 l 0.0273,0.28569 0.92211,0.0283 c 0.50716,0.0156 1.95949,-0.0213 3.22739,-0.082 3.60901,-0.17265 3.97737,-0.10878 3.39109,0.58796 l -0.21353,0.25377 0.1877,0.36042 c 0.16905,0.32461 0.19094,0.50759 0.22022,1.84144 0.0376,1.71289 0.0126,1.65876 0.85743,1.85591 0.77462,0.18076 1.11157,0.17296 1.37186,-0.0318 z"
       id="path4542"
       inkscape:connector-curvature="0" />
  </g>
</svg>
