<?xml version="1.0" encoding="UTF-8" standalone="no"?>
<!-- Created with Inkscape (http://www.inkscape.org/) -->

<svg
   xmlns:dc="http://purl.org/dc/elements/1.1/"
   xmlns:cc="http://creativecommons.org/ns#"
   xmlns:rdf="http://www.w3.org/1999/02/22-rdf-syntax-ns#"
   xmlns:svg="http://www.w3.org/2000/svg"
   xmlns="http://www.w3.org/2000/svg"
   xmlns:sodipodi="http://sodipodi.sourceforge.net/DTD/sodipodi-0.dtd"
   xmlns:inkscape="http://www.inkscape.org/namespaces/inkscape"
   width="88.80201mm"
   height="30.39119mm"
   viewBox="0 0 88.802008 30.39119"
   version="1.1"
   id="svg8"
   sodipodi:docname="center.svg"
   inkscape:version="0.92.3 (2405546, 2018-03-11)">
  <defs
     id="defs2" />
  <sodipodi:namedview
     id="base"
     pagecolor="#ffffff"
     bordercolor="#666666"
     borderopacity="1.0"
     inkscape:pageopacity="0.0"
     inkscape:pageshadow="2"
     inkscape:zoom="5.6"
     inkscape:cx="17.763461"
     inkscape:cy="95.337071"
     inkscape:document-units="mm"
     inkscape:current-layer="layer1"
     showgrid="false"
     inkscape:window-width="1536"
     inkscape:window-height="801"
     inkscape:window-x="-8"
     inkscape:window-y="-8"
     inkscape:window-maximized="1"
     fit-margin-top="0"
     fit-margin-left="0"
     fit-margin-right="0"
     fit-margin-bottom="0" />
  <metadata
     id="metadata5">
    <rdf:RDF>
      <cc:Work
         rdf:about="">
        <dc:format>image/svg+xml</dc:format>
        <dc:type
           rdf:resource="http://purl.org/dc/dcmitype/StillImage" />
        <dc:title></dc:title>
      </cc:Work>
    </rdf:RDF>
  </metadata>
  <g
     inkscape:label="Layer 1"
     inkscape:groupmode="layer"
     id="layer1"
     transform="translate(-188.84466,-252.96383)">
    <path
       style="fill:#000000;stroke-width:1"
       d="m 229.43781,283.30578 c -2.34916,-0.0955 -0.73162,-0.0928 -15.02078,-0.0243 -9.07457,0.0436 -12.22868,0.0334 -12.61533,-0.0406 -1.07574,-0.20601 -3.10151,-0.8556 -4.23724,-1.35872 -1.27042,-0.56279 -1.92383,-0.94242 -2.45898,-1.42867 -0.18627,-0.16925 -0.66897,-0.52669 -1.07268,-0.79431 -0.7731,-0.5125 -1.12381,-0.86144 -1.30833,-1.30174 -0.0614,-0.14657 -0.32143,-0.44569 -0.57779,-0.6647 -0.28204,-0.24096 -0.55111,-0.57036 -0.6814,-0.83417 -0.23228,-0.47036 -0.52386,-0.92837 -0.9421,-1.47986 -0.15492,-0.20428 -0.32281,-0.58146 -0.4057,-0.91144 -0.0778,-0.30961 -0.21152,-0.70117 -0.29723,-0.87013 -0.22721,-0.44792 -0.64173,-1.79437 -0.83745,-2.72021 -0.15796,-0.74719 -0.16495,-0.96372 -0.0983,-3.048 0.0781,-2.44308 0.0774,-2.43873 0.63656,-4.11237 0.6396,-1.91443 1.14283,-3.08383 1.46228,-3.39806 0.0849,-0.0836 0.3376,-0.41779 0.5615,-0.74276 1.11801,-1.62277 2.46807,-3.05627 3.50361,-3.72014 0.31079,-0.19924 1.1621,-0.66985 1.89181,-1.04579 1.55571,-0.80149 3.00094,-1.2994 4.34592,-1.49725 0.51224,-0.0753 1.08374,-0.17283 1.27,-0.21662 0.43256,-0.10171 2.74516,-0.095 4.86834,0.014 0.90805,0.0466 1.82245,0.0797 2.032,0.0735 0.68487,-0.0203 5.81179,-0.0438 14.66887,-0.0674 5.71173,-0.0152 8.76529,-0.053 8.89034,-0.10994 0.13059,-0.0595 1.06876,-0.0563 2.98413,0.0103 1.53651,0.0534 3.02226,0.0966 3.30166,0.096 0.2794,-6.2e-4 5.89323,-0.0271 12.47519,-0.0587 8.21034,-0.0395 12.07764,-0.0299 12.319,0.0307 0.1935,0.0486 0.75732,0.14838 1.25294,0.22183 0.49562,0.0734 1.31477,0.26688 1.82033,0.42986 0.84446,0.27225 2.95502,1.27629 4.05111,1.92722 1.0814,0.64221 2.25726,1.85274 3.70464,3.81388 0.87633,1.18739 0.99984,1.39242 1.33287,2.21279 0.26798,0.66009 1.05724,2.97494 1.22704,3.59884 0.0317,0.11642 0.0883,1.22132 0.12574,2.45534 0.0618,2.03506 0.0532,2.31845 -0.0928,3.048 -0.20098,1.00452 -0.63085,2.41411 -0.84092,2.75744 -0.0874,0.14287 -0.21232,0.48854 -0.27756,0.76816 -0.13923,0.59686 -0.23045,0.78148 -0.64565,1.30674 -0.16994,0.215 -0.43596,0.64623 -0.59114,0.9583 -0.24476,0.4922 -1.02225,1.40602 -1.19626,1.40602 -0.0317,0 -0.1063,0.12383 -0.16572,0.27517 -0.16716,0.42574 -0.72312,0.9576 -1.62701,1.55649 -0.45402,0.30082 -0.8255,0.58184 -0.8255,0.62449 0,0.34126 -2.99121,1.75765 -4.80048,2.2731 -1.57854,0.44972 -1.89692,0.51228 -2.73485,0.53738 -1.71348,0.0513 -6.00852,-0.0216 -6.49922,-0.11032 -0.36383,-0.0658 -0.64281,-0.0697 -0.889,-0.0125 -0.22275,0.0518 -4.24316,0.0902 -10.60345,0.10145 -9.72935,0.0171 -11.0616,0.0283 -13.462,0.11309 -0.5588,0.0197 -1.87325,10e-4 -2.921,-0.0415 z"
       id="path4555"
       inkscape:connector-curvature="0" />
  </g>
</svg>
