<?xml version="1.0" encoding="UTF-8" standalone="no"?>
<!-- Created with Inkscape (http://www.inkscape.org/) -->

<svg
   xmlns:dc="http://purl.org/dc/elements/1.1/"
   xmlns:cc="http://creativecommons.org/ns#"
   xmlns:rdf="http://www.w3.org/1999/02/22-rdf-syntax-ns#"
   xmlns:svg="http://www.w3.org/2000/svg"
   xmlns="http://www.w3.org/2000/svg"
   xmlns:sodipodi="http://sodipodi.sourceforge.net/DTD/sodipodi-0.dtd"
   xmlns:inkscape="http://www.inkscape.org/namespaces/inkscape"
   width="63.346146mm"
   height="100.09669mm"
   viewBox="0 0 63.346142 100.0967"
   version="1.1"
   id="svg8"
   sodipodi:docname="dialogBackground.svg"
   inkscape:version="0.92.3 (2405546, 2018-03-11)">
  <defs
     id="defs2" />
  <sodipodi:namedview
     id="base"
     pagecolor="#ffffff"
     bordercolor="#666666"
     borderopacity="1.0"
     inkscape:pageopacity="0.0"
     inkscape:pageshadow="2"
     inkscape:zoom="1.979899"
     inkscape:cx="139.90572"
     inkscape:cy="307.73739"
     inkscape:document-units="mm"
     inkscape:current-layer="layer1"
     showgrid="false"
     inkscape:window-width="1536"
     inkscape:window-height="801"
     inkscape:window-x="-8"
     inkscape:window-y="-8"
     inkscape:window-maximized="1"
     fit-margin-top="0"
     fit-margin-left="0"
     fit-margin-right="0"
     fit-margin-bottom="0"
     inkscape:pagecheckerboard="false" />
  <metadata
     id="metadata5">
    <rdf:RDF>
      <cc:Work
         rdf:about="">
        <dc:format>image/svg+xml</dc:format>
        <dc:type
           rdf:resource="http://purl.org/dc/dcmitype/StillImage" />
        <dc:title></dc:title>
      </cc:Work>
    </rdf:RDF>
  </metadata>
  <g
     inkscape:label="Layer 1"
     inkscape:groupmode="layer"
     id="layer1"
     transform="translate(-218.28424,-220.34094)">
    <path
       style="fill:#000000;stroke-width:1"
       d="m 226.60421,320.42545 c -0.16193,-0.0574 -1.35654,-0.20616 -1.651,-0.20557 -0.17479,0 -0.46996,-0.10054 -0.71967,-0.24597 -0.23283,-0.13562 -0.80433,-0.44639 -1.27,-0.69063 -0.70701,-0.37082 -0.97952,-0.5779 -1.6521,-1.25551 -0.83915,-0.84543 -1.70782,-2.00446 -2.17954,-2.9081 -0.30065,-0.57592 -0.64026,-1.92543 -0.79438,-3.15661 -0.11447,-0.91444 -0.0333,-2.23976 0.13713,-2.23976 0.0899,0 0.10965,-1.72279 0.10705,-9.3345 -0.002,-5.13397 0.0238,-9.45554 0.0569,-9.60348 0.0404,-0.18077 0.0166,-0.35295 -0.0723,-0.52497 -0.16341,-0.31599 -0.1692,-0.74214 -0.0141,-1.03937 0.098,-0.18787 0.10379,-0.72154 0.0352,-3.25966 -0.0451,-1.66926 -0.0578,-3.56842 -0.0281,-4.22035 0.0296,-0.65193 0.0448,-5.47158 0.0337,-10.71033 -0.0263,-12.40014 -0.0263,-13.01944 -0.002,-23.62201 0.0112,-4.95935 -0.0221,-11.13745 -0.0741,-13.72911 -0.0842,-4.20405 -0.0799,-4.79742 0.0402,-5.50333 0.18329,-1.07688 0.44062,-2.05311 0.6487,-2.46099 0.26796,-0.52524 1.1851,-1.81588 1.8117,-2.5495 0.66378,-0.77714 1.12165,-1.11866 2.64956,-1.97627 0.83272,-0.4674 1.19704,-0.62766 1.397,-0.61449 0.14877,0.01 0.32765,-0.003 0.3975,-0.028 0.56119,-0.20241 2.4852,-0.22863 14.097,-0.19213 6.75217,0.0212 12.39097,0.0383 12.53067,0.0379 0.22112,-6e-4 11.17681,0.002 11.85333,0.002 0.1397,1.6e-4 2.3876,-0.008 4.99533,-0.0185 5.9278,-0.0235 6.05026,-0.0108 7.49301,0.7824 0.53551,0.2944 1.17606,0.66946 1.42344,0.83347 0.49253,0.32654 1.28407,1.15064 1.80474,1.87897 0.18309,0.25612 0.52183,0.73097 0.75275,1.05524 0.56959,0.79982 0.8797,1.74677 1.14039,3.48227 0.11382,0.75779 0.11079,1.18506 -0.0586,8.24716 -0.0173,0.7196 -0.0188,39.96731 -0.002,40.767 0.0449,2.08611 0.0105,8.75934 -0.0474,9.21155 -0.0406,0.31656 -0.0482,0.59135 -0.017,0.61066 0.0312,0.0193 0.0488,5.7039 0.0391,12.63244 -0.0162,11.49494 -0.0304,12.65978 -0.16219,13.31076 -0.18167,0.89723 -0.50766,1.92745 -0.70258,2.22037 -0.83644,1.257 -1.37196,1.93758 -2.09276,2.65963 -0.69248,0.69368 -0.98438,0.91988 -1.57027,1.2168 -0.39581,0.2006 -0.90405,0.48056 -1.12942,0.62213 -0.75405,0.47366 -1.51606,0.52899 -6.99858,0.50813 -2.63101,-0.01 -4.87891,-0.018 -4.99533,-0.0177 -0.47169,10e-4 -11.57862,0 -11.85333,-9.3e-4 -0.16299,-8.4e-4 -5.91609,0.0122 -12.78467,0.0287 -6.86858,0.0165 -12.52643,0.0165 -12.573,-3e-5 z"
       id="path4651"
       inkscape:connector-curvature="0" />
  </g>
</svg>
