<?xml version="1.0" encoding="UTF-8" standalone="no"?>
<!-- Created with Inkscape (http://www.inkscape.org/) -->

<svg
   xmlns:dc="http://purl.org/dc/elements/1.1/"
   xmlns:cc="http://creativecommons.org/ns#"
   xmlns:rdf="http://www.w3.org/1999/02/22-rdf-syntax-ns#"
   xmlns:svg="http://www.w3.org/2000/svg"
   xmlns="http://www.w3.org/2000/svg"
   xmlns:sodipodi="http://sodipodi.sourceforge.net/DTD/sodipodi-0.dtd"
   xmlns:inkscape="http://www.inkscape.org/namespaces/inkscape"
   width="12.31904mm"
   height="3.2519944mm"
   viewBox="0 0 12.31904 3.2519944"
   version="1.1"
   id="svg8"
   inkscape:version="0.92.3 (2405546, 2018-03-11)"
   sodipodi:docname="divider.svg">
  <defs
     id="defs2" />
  <sodipodi:namedview
     id="base"
     pagecolor="#ffffff"
     bordercolor="#666666"
     borderopacity="1.0"
     inkscape:pageopacity="0.0"
     inkscape:pageshadow="2"
     inkscape:zoom="5.6"
     inkscape:cx="1.3155383"
     inkscape:cy="-6.4198131"
     inkscape:document-units="mm"
     inkscape:current-layer="layer1"
     showgrid="false"
     fit-margin-top="0"
     fit-margin-left="0"
     fit-margin-right="0"
     fit-margin-bottom="0"
     inkscape:window-width="1536"
     inkscape:window-height="801"
     inkscape:window-x="-8"
     inkscape:window-y="-8"
     inkscape:window-maximized="1" />
  <metadata
     id="metadata5">
    <rdf:RDF>
      <cc:Work
         rdf:about="">
        <dc:format>image/svg+xml</dc:format>
        <dc:type
           rdf:resource="http://purl.org/dc/dcmitype/StillImage" />
        <dc:title></dc:title>
      </cc:Work>
    </rdf:RDF>
  </metadata>
  <g
     inkscape:label="Layer 1"
     inkscape:groupmode="layer"
     id="layer1"
     transform="translate(-193.19651,-253.17985)">
    <path
       style="fill:#000000;stroke-width:1"
       d="m 196.83753,256.33755 c -1.11227,-0.21852 -1.755,-0.5228 -2.45432,-1.16194 -0.5427,-0.496 -0.81064,-0.87924 -1.06383,-1.52158 -0.15974,-0.40525 -0.16101,-0.43048 -0.0196,-0.39039 0.0831,0.0236 0.60833,0.18637 1.16713,0.36177 0.90151,0.28297 1.14004,0.32313 2.11667,0.35636 l 1.10067,0.0375 1.0163,-0.38201 c 1.20481,-0.45287 1.76933,-0.53216 2.84177,-0.39914 1.59035,0.19727 2.16293,0.46665 3.00438,1.41347 0.65475,0.73673 0.9684,1.20901 0.96885,1.45885 3.4e-4,0.18782 -0.0226,0.19765 -0.34168,0.14662 -0.18812,-0.0301 -0.69295,-0.17163 -1.12183,-0.31456 -0.97694,-0.32557 -1.88644,-0.41291 -2.19492,-0.21079 -0.19438,0.12736 -0.25089,0.12907 -0.57511,0.0174 -0.32498,-0.11196 -0.41818,-0.10888 -0.96935,0.0321 -0.33539,0.0858 -0.85444,0.25992 -1.15344,0.38698 -0.65748,0.2794 -1.46281,0.33818 -2.32164,0.16945 z"
       id="path4529"
       inkscape:connector-curvature="0" />
  </g>
</svg>
