<?xml version="1.0" encoding="UTF-8" standalone="no"?>
<!-- Created with Inkscape (http://www.inkscape.org/) -->

<svg
   xmlns:dc="http://purl.org/dc/elements/1.1/"
   xmlns:cc="http://creativecommons.org/ns#"
   xmlns:rdf="http://www.w3.org/1999/02/22-rdf-syntax-ns#"
   xmlns:svg="http://www.w3.org/2000/svg"
   xmlns="http://www.w3.org/2000/svg"
   xmlns:sodipodi="http://sodipodi.sourceforge.net/DTD/sodipodi-0.dtd"
   xmlns:inkscape="http://www.inkscape.org/namespaces/inkscape"
   width="109.33691mm"
   height="24.791849mm"
   viewBox="0 0 109.33691 24.791849"
   version="1.1"
   id="svg5068"
   inkscape:version="0.92.3 (2405546, 2018-03-11)"
   sodipodi:docname="navigation.svg">
  <defs
     id="defs5062" />
  <sodipodi:namedview
     id="base"
     pagecolor="#ffffff"
     bordercolor="#666666"
     borderopacity="1.0"
     inkscape:pageopacity="0.0"
     inkscape:pageshadow="2"
     inkscape:zoom="0.35"
     inkscape:cx="-166.23623"
     inkscape:cy="-370.29212"
     inkscape:document-units="mm"
     inkscape:current-layer="layer1"
     showgrid="false"
     fit-margin-top="0"
     fit-margin-left="0"
     fit-margin-right="0"
     fit-margin-bottom="0"
     inkscape:window-width="1680"
     inkscape:window-height="1027"
     inkscape:window-x="3832"
     inkscape:window-y="288"
     inkscape:window-maximized="1" />
  <metadata
     id="metadata5065">
    <rdf:RDF>
      <cc:Work
         rdf:about="">
        <dc:format>image/svg+xml</dc:format>
        <dc:type
           rdf:resource="http://purl.org/dc/dcmitype/StillImage" />
        <dc:title></dc:title>
      </cc:Work>
    </rdf:RDF>
  </metadata>
  <g
     inkscape:label="Layer 1"
     inkscape:groupmode="layer"
     id="layer1"
     transform="translate(-26.974407,-26.068361)">
    <path
       style="fill:#000000;stroke-width:1"
       d="m 26.974407,41.875869 c 0.011,-0.22527 0.014,-0.32095 0.021,-0.4187 0.045,-0.208 0.1557,-0.9186 0.2552,-1.524 0.1,-0.6054 0.2424,-1.3437 0.3176,-1.6407 0.2078,-0.821 1.0424,-2.398499 1.8245,-3.4484 0.3853,-0.517299 0.7867,-1.059299 0.892,-1.2044 0.4512,-0.622 2.2034,-1.686399 3.6549,-2.2204 0.6201,-0.227999 0.6402,-0.244199 0.6194,-0.496399 -0.027,-0.3303 0.5683,-0.3785 0.6494,-0.055 0.06,0.2386 -0.054,0.4206 0.6146,0.313 0.5329,-0.3067 0.6162,-0.1501 1.0163,-0.1758 0.091,0 3.2123,-0.5861 6.4196,-1.2699 1.5363,-0.3276 5.5065,-1.0599 10.6712,-1.8007 3.1175,-0.4473 3.01,-0.323 3.8491,-0.2993 0.7136,0.02 0.784302,0.01 1.1133,-0.2168 0.324901,-0.220601 0.3775,-0.231301 0.7028,-0.1437 0.1934,0.052 0.3703,0.143399 0.3932,0.203 0.032,0.084 0.206401,0.064 0.778801,-0.091 0.7044,-0.190701 1.983999,-0.365701 3.9122,-0.534901 0.489001,-0.043 1.432,-0.3041 1.723999,-0.3517 0.291999,-0.048 1.5337,0.2012 2.9879,0.1815 1.4542,-0.02 2.717601,-0.1919 2.950501,-0.2389 0.546399,-0.111 3.649901,-0.1845 7.226199,-0.2075 0.553601,0 0.853901,0.2256 1.4224,0.2245 0.209201,-3.99e-4 0.683401,-0.2321 0.893101,-0.2321 2.523699,-7e-4 5.0623,0.024 6.945199,0.077 0.308502,0.01 1.690801,-0.2463 1.9611,-0.2359 1.1445,0.044 0.987001,0.3458 1.811501,0.3834 2.1042,0.096 2.8344,0.1265 5.196999,0.3356 0.2701,0.024 1.1152,-0.1822 1.413301,-0.1552 0.466601,0.042 0.321299,1.041201 0.872102,1.0921 0.2905,0.027 0.8189,-0.6371 1.3143,-0.7641 0.5186,-0.1329 1.0053,0.2711 1.35,0.311001 3.4777,0.4018 7.6549,1.0451 8.8447,1.2788 0.7155,0.140599 2.6385,-0.126 4.1011,0.082 0.5355,0.076 1.7206,0.697999 2.0676,0.816099 0.4162,0.141601 0.7286,0.1988 0.9179,0.168101 0.1578,-0.026 0.6931,0.024 1.1894,0.111399 0.4963,0.087 1.4167,0.2393 2.0454,0.3387 0.2787,0.044 1.0177,0.428701 1.5512,0.527 0.67,0.123401 1.1779,-0.03 1.8778,0.11 2.4474,0.435401 1.1112,0.185001 3.8677,0.803201 1.425,0.5167 3.2197,1.5781 3.7357,2.209499 1.3039,1.595201 2.282,3.189 2.6983,4.3968 0.088,0.2561 0.2366,0.9419 0.3296,1.524 0.093,0.5821 0.2283,1.3531 0.3008,1.7134 0.1,0.6585 -0.067,1.34014 0.036,1.7058 V 50.86021 H 26.974407 Z"
       id="path5051"
       inkscape:connector-curvature="0"
       sodipodi:nodetypes="ccccccccccccccccccccccsssscssscssccccccsccccsccccc" />
  </g>
</svg>
