<?xml version="1.0" encoding="UTF-8" standalone="no"?>
<!-- Created with Inkscape (http://www.inkscape.org/) -->

<svg
   xmlns:dc="http://purl.org/dc/elements/1.1/"
   xmlns:cc="http://creativecommons.org/ns#"
   xmlns:rdf="http://www.w3.org/1999/02/22-rdf-syntax-ns#"
   xmlns:svg="http://www.w3.org/2000/svg"
   xmlns="http://www.w3.org/2000/svg"
   xmlns:sodipodi="http://sodipodi.sourceforge.net/DTD/sodipodi-0.dtd"
   xmlns:inkscape="http://www.inkscape.org/namespaces/inkscape"
   width="184.93077mm"
   height="155.77753mm"
   viewBox="0 0 184.93077 155.77753"
   version="1.1"
   id="svg8"
   inkscape:version="0.92.3 (2405546, 2018-03-11)"
   sodipodi:docname="phoneVerify.svg">
  <defs
     id="defs2">
    <inkscape:path-effect
       effect="spiro"
       id="path-effect1828"
       is_visible="true" />
    <inkscape:path-effect
       effect="spiro"
       id="path-effect1820"
       is_visible="true" />
    <inkscape:path-effect
       effect="spiro"
       id="path-effect890"
       is_visible="true" />
    <inkscape:path-effect
       effect="spiro"
       id="path-effect886"
       is_visible="true" />
    <inkscape:path-effect
       effect="spiro"
       id="path-effect882"
       is_visible="true" />
    <inkscape:path-effect
       effect="spiro"
       id="path-effect860"
       is_visible="true" />
    <inkscape:path-effect
       effect="spiro"
       id="path-effect856"
       is_visible="true" />
    <inkscape:path-effect
       effect="spiro"
       id="path-effect852"
       is_visible="true" />
    <inkscape:path-effect
       effect="spiro"
       id="path-effect848"
       is_visible="true" />
    <inkscape:path-effect
       effect="spiro"
       id="path-effect844"
       is_visible="true" />
    <inkscape:path-effect
       effect="spiro"
       id="path-effect840"
       is_visible="true" />
    <inkscape:path-effect
       effect="spiro"
       id="path-effect836"
       is_visible="true" />
    <inkscape:path-effect
       effect="spiro"
       id="path-effect832"
       is_visible="true" />
    <inkscape:path-effect
       effect="spiro"
       id="path-effect860-8"
       is_visible="true" />
    <inkscape:path-effect
       effect="spiro"
       id="path-effect1820-6"
       is_visible="true" />
    <inkscape:path-effect
       effect="spiro"
       id="path-effect1828-7"
       is_visible="true" />
    <inkscape:path-effect
       effect="spiro"
       id="path-effect1820-9"
       is_visible="true" />
    <inkscape:path-effect
       effect="spiro"
       id="path-effect1828-6"
       is_visible="true" />
    <inkscape:path-effect
       effect="spiro"
       id="path-effect1828-7-7"
       is_visible="true" />
    <inkscape:path-effect
       effect="spiro"
       id="path-effect1828-7-6"
       is_visible="true" />
    <inkscape:path-effect
       effect="spiro"
       id="path-effect1828-7-3"
       is_visible="true" />
    <inkscape:path-effect
       effect="spiro"
       id="path-effect1828-7-1"
       is_visible="true" />
    <inkscape:path-effect
       effect="spiro"
       id="path-effect1828-7-0"
       is_visible="true" />
    <inkscape:path-effect
       effect="spiro"
       id="path-effect1828-7-8"
       is_visible="true" />
  </defs>
  <sodipodi:namedview
     id="base"
     pagecolor="#ffffff"
     bordercolor="#666666"
     borderopacity="1.0"
     inkscape:pageopacity="0.0"
     inkscape:pageshadow="2"
     inkscape:zoom="0.35"
     inkscape:cx="-513.69897"
     inkscape:cy="-89.805573"
     inkscape:document-units="mm"
     inkscape:current-layer="layer1"
     showgrid="false"
     inkscape:snap-global="false"
     inkscape:window-width="1536"
     inkscape:window-height="801"
     inkscape:window-x="-8"
     inkscape:window-y="-8"
     inkscape:window-maximized="1"
     fit-margin-top="0"
     fit-margin-left="0"
     fit-margin-right="0"
     fit-margin-bottom="0" />
  <metadata
     id="metadata5">
    <rdf:RDF>
      <cc:Work
         rdf:about="">
        <dc:format>image/svg+xml</dc:format>
        <dc:type
           rdf:resource="http://purl.org/dc/dcmitype/StillImage" />
        <dc:title></dc:title>
      </cc:Work>
    </rdf:RDF>
  </metadata>
  <g
     inkscape:label="Layer 1"
     inkscape:groupmode="layer"
     id="layer1"
     transform="translate(-2.1699328,-58.778608)">
    <path
       style="fill:#22211f;fill-opacity:1;stroke:#000000;stroke-width:0.26458332px;stroke-linecap:butt;stroke-linejoin:miter;stroke-opacity:1"
       d="m 84.72444,78.106256 c -15.993737,5.781017 -30.320859,15.654875 -42.495856,27.528764 -7.045976,6.87172 -13.532659,14.61622 -17.105249,23.78698 -5.33714,13.70033 -3.591056,29.37935 1.870888,43.0304 4.993214,12.47955 13.417954,24.09188 25.390604,30.20146 6.312387,3.22118 13.573984,4.81015 20.579752,3.74177 5.768596,-0.87971 11.144858,-3.49966 16.036173,-6.68174 10.620162,-6.90902 19.257108,-16.49348 26.726948,-26.72695 13.80008,-18.90571 24.0737,-40.59392 28.33057,-63.61015 0.76691,-4.14655 1.34012,-8.34479 1.33635,-12.561667 -0.003,-3.301395 -0.36555,-6.624186 -1.3688,-9.769454 -1.00325,-3.145267 -2.66847,-6.113989 -5.04567,-8.404873 -2.78414,-2.683049 -6.42444,-4.333563 -10.15624,-5.345393 -7.88651,-2.138324 -16.25939,-1.598283 -24.32152,-0.267269 -6.724997,1.110261 -13.367811,2.761145 -19.77795,5.078122 z"
       id="path830"
       inkscape:connector-curvature="0"
       inkscape:path-effect="#path-effect832"
       inkscape:original-d="M 84.72444,78.106256 C 78.131526,79.799227 56.394135,96.458499 42.228584,105.63502 28.063036,114.81154 30.82535,121.49274 25.123335,129.422 c -5.702014,7.92927 1.247523,28.68667 1.870888,43.0304 0.623363,14.34373 16.927332,20.13404 25.390604,30.20146 8.463269,10.06741 13.720101,2.49425 20.579752,3.74177 6.859653,1.24752 10.691048,-4.45476 16.036173,-6.68174 5.345126,-2.22698 17.818228,-17.81823 26.726948,-26.72695 8.90872,-8.90872 18.88732,-42.40703 28.33057,-63.61015 9.44326,-21.203117 0.89117,-8.37471 1.33635,-12.561667 0.44519,-4.186957 -4.27605,-12.116483 -6.41447,-18.174327 -2.13842,-6.057847 -6.77056,-3.563861 -10.15624,-5.345393 -3.38568,-1.781532 -16.21409,-0.178443 -24.32152,-0.267269 -8.107447,-0.08883 -13.185039,3.385151 -19.77795,5.078122 z" />
    <path
       style="fill:none;stroke:#d8d738;stroke-width:2;stroke-linecap:butt;stroke-linejoin:miter;stroke-miterlimit:4;stroke-dasharray:none;stroke-opacity:1"
       inkscape:path-effect="#path-effect1828-7"
       inkscape:original-d="m 60.63536,119.03411 c 0.386306,0.0478 0.77175,-0.10382 1.157322,-0.15545 0.38557,-0.0517 0.535492,-0.64672 0.802935,-0.96989 0.267444,-0.32316 -0.119362,-0.67617 -0.179364,-1.01407 -0.06002,-0.3379 0.21608,-0.59604 0.323809,-0.89386 0.107738,-0.29782 0.240382,-0.43521 0.360275,-0.65263 0.119884,-0.21741 0.02401,-1.00261 0.03577,-1.50374 0.01171,-0.50111 -0.316756,-0.71498 -0.475441,-1.07227 -0.158675,-0.35731 -0.566173,-0.16825 -0.849561,-0.25217 -0.283397,-0.0839 -3.12341,-0.30223 -4.685418,-0.45316 -1.562007,-0.15092 -10.568611,-1.40682 -15.853219,-2.11006 -5.284608,-0.70323 -4.633815,-0.87117 -6.951024,-1.30657 -2.31721,-0.4354 -0.908944,-0.0818 -1.363718,-0.12254 -0.454776,-0.0408 -0.662927,-0.0596 -0.994688,-0.0892 -0.331771,-0.0296 -0.347889,0.11586 -0.522146,0.17397 -0.174249,0.0581 -0.298804,0.36665 -0.448507,0.55017 -0.149693,0.18352 -0.233665,0.74828 -0.350799,1.12261 -0.117134,0.37433 -0.1515,0.70769 -0.227562,1.06173 -0.0761,0.35405 -0.256513,0.78635 -0.385076,1.17972 -0.128553,0.39336 0.058,0.62122 0.08671,0.93202 0.02871,0.31081 0.38037,0.55694 0.570248,0.8356 0.189879,0.27866 0.549569,0.17882 0.824047,0.26842 0.274476,0.0896 1.091636,0.18611 1.637152,0.27936 0.545516,0.0932 3.317306,0.49607 4.975646,0.74428 1.658351,0.24823 4.026352,0.63791 6.039221,0.95707 2.012869,0.31914 6.7656,1.00913 10.148098,1.51389 3.382489,0.50477 2.612206,0.39226 3.918013,0.58858 1.305795,0.19631 0.832026,0.16342 1.247732,0.24533 0.415717,0.0819 0.773197,0.0952 1.159501,0.14287 z"
       d="m 60.63536,119.03411 c 0.390236,0.0558 0.795653,0.001 1.157322,-0.15545 0.20284,-0.088 0.394029,-0.20929 0.541541,-0.37398 0.147512,-0.16468 0.249168,-0.37516 0.261394,-0.59591 0.0095,-0.17206 -0.03437,-0.3422 -0.08079,-0.50816 -0.04642,-0.16596 -0.09611,-0.3336 -0.09858,-0.50591 -0.0023,-0.16069 0.03695,-0.31998 0.09736,-0.4689 0.06041,-0.14892 0.141692,-0.28842 0.22645,-0.42496 0.131295,-0.21151 0.27278,-0.41957 0.360275,-0.65263 0.178305,-0.47495 0.115698,-1.00276 0.03577,-1.50374 -0.03159,-0.19802 -0.06588,-0.39709 -0.13639,-0.5848 -0.07051,-0.18772 -0.180044,-0.3653 -0.339051,-0.48747 -0.11871,-0.0912 -0.260684,-0.14839 -0.405969,-0.18449 -0.145286,-0.0361 -0.29471,-0.052 -0.443592,-0.0677 -1.560503,-0.16408 -3.122984,-0.30863 -4.685418,-0.45316 -5.311759,-0.49137 -10.638792,-0.9849 -15.853219,-2.11006 -2.306624,-0.49772 -4.598692,-1.12009 -6.951024,-1.30657 -0.455088,-0.0361 -0.912109,-0.0558 -1.363718,-0.12254 -0.330307,-0.0488 -0.662503,-0.12296 -0.994688,-0.0892 -0.184298,0.0187 -0.367481,0.072 -0.522146,0.17397 -0.199838,0.13174 -0.340849,0.3364 -0.448507,0.55017 -0.176907,0.35128 -0.275895,0.7365 -0.350799,1.12261 -0.06898,0.35556 -0.118974,0.7162 -0.227562,1.06173 -0.12425,0.39536 -0.324731,0.76971 -0.385076,1.17972 -0.04582,0.31133 -0.0078,0.63186 0.08671,0.93202 0.103241,0.32801 0.283722,0.64547 0.570248,0.8356 0.242501,0.16092 0.537583,0.21705 0.824047,0.26842 0.544919,0.0977 1.090678,0.19075 1.637152,0.27936 1.655397,0.26842 3.317073,0.49624 4.975646,0.74428 2.015791,0.30146 4.026972,0.6328 6.039221,0.95707 3.376694,0.54414 6.756971,1.06846 10.148098,1.51389 1.309663,0.17203 2.622164,0.33249 3.918013,0.58858 0.41585,0.0822 0.829851,0.17419 1.247732,0.24533 0.384036,0.0654 0.771082,0.11307 1.159501,0.14287 z"
       id="path1903"
       inkscape:connector-curvature="0" />
    <path
       style="fill:none;stroke:#d8d738;stroke-width:2;stroke-linecap:butt;stroke-linejoin:miter;stroke-miterlimit:4;stroke-dasharray:none;stroke-opacity:1"
       inkscape:path-effect="#path-effect1828-7-1"
       inkscape:original-d="m 78.063415,155.96808 c 0.368613,-0.12504 0.649742,-0.42919 0.974469,-0.6434 0.324689,-0.21427 0.200849,-0.81525 0.301084,-1.2226 0.100241,-0.40731 -0.401618,-0.55692 -0.602621,-0.83506 -0.201005,-0.27816 -0.06473,-0.63069 -0.09726,-0.94573 -0.03254,-0.31503 0.02714,-0.49644 0.04051,-0.74436 0.01338,-0.24792 -0.414473,-0.91325 -0.62191,-1.36957 -0.207426,-0.45632 -0.596233,-0.50601 -0.894537,-0.75871 -0.298313,-0.2527 -0.582992,0.0948 -0.874668,0.14255 -0.29167,0.0477 -2.943886,1.08654 -4.416019,1.63011 -1.472128,0.54357 -10.128276,3.33057 -15.192604,4.99615 -5.064337,1.66557 -4.551397,1.23126 -6.827279,1.8472 -2.275882,0.61593 -0.854038,0.3217 -1.281239,0.48287 -0.427227,0.16111 -0.622846,0.23471 -0.934447,0.35238 -0.311621,0.11767 -0.262855,0.25565 -0.394482,0.38378 -0.13164,0.12808 -0.109558,0.46012 -0.164526,0.69049 -0.05501,0.23037 0.115048,0.77543 0.172447,1.16343 0.0574,0.38802 0.171436,0.70313 0.256954,1.055 0.08551,0.35189 0.11105,0.81964 0.166401,1.22977 0.05535,0.41012 0.322486,0.53411 0.483536,0.80149 0.16106,0.26737 0.584768,0.33602 0.876958,0.50434 0.29219,0.16832 0.572628,-0.078 0.858755,-0.11674 0.286116,-0.0387 1.063901,-0.30728 1.595668,-0.46061 0.531767,-0.15333 3.202786,-0.99634 4.803994,-1.49422 1.60121,-0.49786 3.90294,-1.17706 5.854221,-1.76527 1.951281,-0.58823 6.530933,-2.03437 9.796205,-3.05125 3.265281,-1.01686 2.522746,-0.7831 3.783932,-1.17435 1.261176,-0.39125 0.820271,-0.21478 1.230219,-0.32185 0.409959,-0.10704 0.737605,-0.25066 1.1062,-0.37574 z"
       d="m 78.063415,155.96808 c 0.375673,-0.11947 0.717036,-0.34485 0.974469,-0.6434 0.144381,-0.16744 0.263757,-0.35985 0.324943,-0.57231 0.06119,-0.21246 0.06116,-0.4462 -0.02386,-0.65029 -0.06627,-0.15907 -0.179806,-0.29317 -0.293792,-0.42241 -0.113987,-0.12924 -0.231655,-0.25857 -0.308829,-0.41265 -0.07197,-0.14369 -0.105928,-0.3042 -0.11631,-0.46457 -0.01038,-0.16038 0.0021,-0.32134 0.01905,-0.48116 0.02622,-0.24756 0.06311,-0.49645 0.04051,-0.74436 -0.04605,-0.50522 -0.332025,-0.95323 -0.62191,-1.36957 -0.114582,-0.16456 -0.23205,-0.3289 -0.377192,-0.46726 -0.145143,-0.13836 -0.321022,-0.25062 -0.517345,-0.29145 -0.146569,-0.0305 -0.299282,-0.0202 -0.445805,0.0105 -0.146523,0.0307 -0.287997,0.0814 -0.428863,0.13205 -1.476463,0.53117 -2.946269,1.08064 -4.416019,1.63011 -4.996664,1.86803 -10.007939,3.74098 -15.192604,4.99615 -2.29346,0.55523 -4.628041,0.99187 -6.827279,1.8472 -0.42547,0.16547 -0.845561,0.34652 -1.281239,0.48287 -0.318656,0.0997 -0.650022,0.17748 -0.934447,0.35238 -0.157801,0.097 -0.299569,0.22469 -0.394482,0.38378 -0.122635,0.20555 -0.160577,0.45117 -0.164526,0.69049 -0.0065,0.39326 0.07193,0.78318 0.172447,1.16343 0.09256,0.35016 0.204433,0.69664 0.256954,1.055 0.0601,0.41005 0.04238,0.83433 0.166401,1.22977 0.09417,0.30026 0.267884,0.57232 0.483536,0.80149 0.235652,0.25043 0.536257,0.45777 0.876958,0.50434 0.28835,0.0394 0.578469,-0.0384 0.858755,-0.11674 0.533174,-0.14904 1.06506,-0.30268 1.595668,-0.46061 1.607334,-0.47841 3.202662,-0.99609 4.803994,-1.49422 1.946217,-0.60541 3.901276,-1.18193 5.854221,-1.76527 3.277182,-0.97889 6.548967,-1.97719 9.796205,-3.05125 1.254092,-0.4148 2.505706,-0.84126 3.783932,-1.17435 0.410195,-0.10689 0.823,-0.20413 1.230219,-0.32185 0.374238,-0.10819 0.743492,-0.23361 1.1062,-0.37574 z"
       id="path1903-5"
       inkscape:connector-curvature="0" />
    <path
       style="fill:none;stroke:#d8d738;stroke-width:2;stroke-linecap:butt;stroke-linejoin:miter;stroke-miterlimit:4;stroke-dasharray:none;stroke-opacity:1"
       inkscape:path-effect="#path-effect1828-7-0"
       inkscape:original-d="m 56.251279,81.267253 c -0.27099,-0.279419 -0.66631,-0.403003 -0.99905,-0.604537 -0.33278,-0.201476 -0.82265,0.168058 -1.23362,0.252132 -0.41096,0.08406 -0.33096,0.601597 -0.49608,0.902438 -0.16513,0.300848 -0.54205,0.328845 -0.81271,0.493305 -0.27066,0.164462 -0.46014,0.18832 -0.68985,0.282523 -0.22971,0.0942 -0.64738,0.765977 -0.97071,1.149016 -0.32333,0.383026 -0.20153,0.755591 -0.30194,1.133425 -0.10041,0.377846 0.33558,0.486063 0.50373,0.729121 0.16816,0.243043 2.24371,2.193811 3.36591,3.290759 1.12222,1.09694 7.351108,7.722426 11.027011,11.583695 3.675906,3.86126 3.063622,3.58404 4.595787,5.37611 1.532165,1.79207 0.656779,0.63365 0.985528,0.95051 0.328721,0.3169 0.479075,0.46207 0.718968,0.69315 0.239876,0.2311 0.34366,0.12787 0.515842,0.19185 0.172152,0.064 0.462658,-0.0983 0.694345,-0.14738 0.231688,-0.0491 0.651203,-0.43642 0.977156,-0.65458 0.325962,-0.21818 0.561748,-0.45632 0.842974,-0.68444 0.281235,-0.22813 0.692871,-0.45175 1.039667,-0.67758 0.346788,-0.22584 0.344285,-0.52034 0.516792,-0.78046 0.172505,-0.26014 0.05288,-0.67236 0.07968,-1.0085 0.0268,-0.33613 -0.316005,-0.48387 -0.473648,-0.72577 -0.15767,-0.24188 -0.733719,-0.82944 -1.100221,-1.24412 -0.366502,-0.41468 -2.273221,-2.46638 -3.409484,-3.69952 -1.136251,-1.233158 -2.736645,-3.021459 -4.104607,-4.532151 -1.367967,-1.510684 -4.637832,-5.028134 -6.956386,-7.542168 -2.318544,-2.514042 -1.789027,-1.943422 -2.683174,-2.915098 -0.89417,-0.971658 -0.54571,-0.648984 -0.8182,-0.973443 -0.27249,-0.324464 -0.54268,-0.55892 -0.8137,-0.838302 z"
       d="m 56.251279,81.267253 c -0.26899,-0.288181 -0.618963,-0.499953 -0.99905,-0.604537 -0.213169,-0.05866 -0.438181,-0.08401 -0.656354,-0.04821 -0.218173,0.0358 -0.429332,0.136033 -0.577266,0.30034 -0.115305,0.128066 -0.187781,0.288134 -0.255675,0.446521 -0.06789,0.158388 -0.134288,0.32014 -0.240405,0.455917 -0.09896,0.126624 -0.229413,0.226109 -0.36985,0.304241 -0.140438,0.07813 -0.29122,0.13584 -0.44286,0.189064 -0.234893,0.08245 -0.475563,0.155822 -0.68985,0.282523 -0.436694,0.258203 -0.718857,0.708629 -0.97071,1.149016 -0.09955,0.174068 -0.197653,0.350648 -0.260426,0.541092 -0.06277,0.190443 -0.08878,0.397462 -0.04151,0.592333 0.03529,0.145486 0.110043,0.279048 0.200591,0.398265 0.09055,0.119216 0.196969,0.225313 0.303139,0.330856 1.112804,1.106233 2.239369,2.198519 3.36591,3.290759 3.829872,3.713262 7.670311,7.437758 11.027011,11.583695 1.484849,1.83397 2.880202,3.75593 4.595787,5.37611 0.331901,0.31344 0.675567,0.61535 0.985528,0.95051 0.226708,0.24514 0.439018,0.51117 0.718968,0.69315 0.155316,0.10096 0.331428,0.17431 0.515842,0.19185 0.238275,0.0227 0.476442,-0.0483 0.694345,-0.14738 0.358067,-0.16273 0.676714,-0.40075 0.977156,-0.65458 0.27667,-0.23374 0.541735,-0.48335 0.842974,-0.68444 0.344686,-0.23009 0.735589,-0.396 1.039667,-0.67758 0.230893,-0.21381 0.402199,-0.48738 0.516792,-0.78046 0.125222,-0.32026 0.183679,-0.68073 0.07968,-1.0085 -0.08802,-0.2774 -0.282697,-0.50614 -0.473648,-0.72577 -0.363237,-0.41779 -0.730064,-0.83245 -1.100221,-1.24412 -1.121289,-1.24704 -2.272938,-2.466371 -3.409484,-3.69952 -1.381331,-1.49874 -2.740335,-3.017867 -4.104607,-4.532151 -2.289342,-2.541073 -4.593916,-5.068936 -6.956386,-7.542168 -0.912392,-0.955169 -1.834246,-1.903107 -2.683174,-2.915098 -0.272431,-0.32476 -0.537262,-0.656014 -0.8182,-0.973443 -0.258183,-0.291719 -0.529799,-0.571547 -0.8137,-0.838302 z"
       id="path1903-9"
       inkscape:connector-curvature="0" />
    <path
       style="fill:none;stroke:#d8d738;stroke-width:2;stroke-linecap:butt;stroke-linejoin:miter;stroke-miterlimit:4;stroke-dasharray:none;stroke-opacity:1"
       inkscape:path-effect="#path-effect1828-7-8"
       inkscape:original-d="m 5.1920533,134.78816 c -0.38923,0.002 -0.75212,0.20169 -1.12793,0.30222 -0.37579,0.10059 -0.44836,0.7099 -0.67227,1.06463 -0.22391,0.35471 0.20488,0.65534 0.3076,0.98278 0.10273,0.32746 -0.13806,0.61879 -0.20681,0.92795 -0.0687,0.30915 -0.18274,0.46238 -0.27383,0.69335 -0.0911,0.23096 0.10439,0.99746 0.15687,1.49596 0.0525,0.49849 0.40561,0.66859 0.60869,1.00265 0.20308,0.33408 0.58305,0.0945 0.87485,0.14143 0.29179,0.047 3.13641,-0.0998 4.70489,-0.1499 1.5684797,-0.0501 47.7034097,0.0434 53.0345597,0.0649 5.331151,0.0215 4.707181,0.27129 7.061049,0.4067 2.353868,0.13542 0.911942,-0.0351 1.368186,-0.0529 0.456256,-0.0177 0.665106,-0.0257 0.997932,-0.0388 0.332833,-0.013 0.330212,-0.15941 0.495601,-0.23933 0.165388,-0.0799 0.249445,-0.40186 0.374444,-0.60301 0.124992,-0.20117 0.136031,-0.77203 0.204323,-1.15827 0.06829,-0.38624 0.05973,-0.72126 0.08988,-1.08211 0.03014,-0.36087 0.153823,-0.8127 0.231011,-1.21929 0.07719,-0.40658 -0.137028,-0.60869 -0.205257,-0.91327 -0.06824,-0.30458 -0.448488,-0.50371 -0.672452,-0.75579 -0.223965,-0.25208 -0.567921,-0.10705 -0.851605,-0.16081 -0.283687,-0.0537 -1.106479,-0.0449 -1.659443,-0.0676 -0.552964,-0.0227 -3.353504,-0.0677 -5.029978,-0.1017 -1.676479,-0.0341 -41.116541,-0.11765 -43.153701,-0.17671 -2.03716,-0.059 -6.8391,-0.13542 -10.25837,-0.20336 -3.4192797,-0.068 -2.6409297,-0.0549 -3.9611197,-0.0826 -1.32018,-0.0277 -0.84609,-0.0556 -1.26887,-0.0837 -0.42277,-0.0281 -0.77901,0.005 -1.16825,0.007 z"
       d="m 5.1920533,134.78816 c -0.3941747,-0.005 -0.7892948,0.1004 -1.12793,0.30222 -0.1899209,0.11319 -0.3640182,0.25797 -0.4892519,0.44018 -0.1252337,0.1822 -0.1991307,0.40395 -0.1830181,0.62445 0.012559,0.17187 0.077859,0.33499 0.1451222,0.49365 0.067263,0.15865 0.1379919,0.31855 0.1624778,0.48913 0.022836,0.15908 0.00429,0.32208 -0.036578,0.47751 -0.040868,0.15543 -0.1036353,0.30418 -0.1702322,0.45044 -0.1031597,0.22656 -0.2168666,0.45101 -0.27383,0.69335 -0.1160846,0.49386 0.013523,1.00932 0.15687,1.49596 0.056659,0.19235 0.1161291,0.3854 0.2100674,0.56256 0.093938,0.17716 0.2252909,0.33927 0.3986226,0.44009 0.1294046,0.0753 0.2775299,0.11381 0.4262408,0.13103 0.1487109,0.0172 0.298946,0.0139 0.4486092,0.0104 1.5686751,-0.0367 3.136864,-0.0917 4.70489,-0.1499 17.6817197,-0.65608 35.4306017,-1.71676 53.0345597,0.0649 2.348093,0.23765 4.703986,0.52614 7.061049,0.4067 0.455933,-0.0231 0.911749,-0.0615 1.368186,-0.0529 0.333841,0.006 0.672796,0.0372 0.997932,-0.0388 0.180383,-0.0422 0.355247,-0.11843 0.495601,-0.23933 0.181346,-0.15621 0.295017,-0.37722 0.374444,-0.60301 0.13052,-0.37103 0.179423,-0.76574 0.204323,-1.15827 0.02293,-0.36146 0.02638,-0.72553 0.08988,-1.08211 0.07266,-0.40801 0.223618,-0.80493 0.231011,-1.21929 0.0056,-0.31463 -0.07314,-0.62766 -0.205257,-0.91327 -0.144363,-0.3121 -0.363973,-0.60385 -0.672452,-0.75579 -0.261083,-0.12859 -0.56092,-0.14657 -0.851605,-0.16081 -0.552949,-0.0271 -1.106144,-0.049 -1.659443,-0.0676 -1.67609,-0.0564 -3.353053,-0.0823 -5.029978,-0.1017 -14.384041,-0.16643 -28.772378,0.14868 -43.153701,-0.17671 -3.41932,-0.0774 -6.838197,-0.19094 -10.25837,-0.20336 -1.320898,-0.005 -2.6431515,0.005 -3.9611197,-0.0826 -0.4229518,-0.0283 -0.845319,-0.0666 -1.26887,-0.0837 -0.3892467,-0.0157 -0.7792192,-0.0134 -1.16825,0.007 z"
       id="path1903-2"
       inkscape:connector-curvature="0"
       sodipodi:nodetypes="cccccccccsscccccccccccscccsccc" />
    <path
       style="fill:#3f3e3b;fill-opacity:1;stroke:none;stroke-width:0.26458332px;stroke-linecap:butt;stroke-linejoin:miter;stroke-opacity:1"
       d="m 76.918155,156.58184 c 2.174711,1.04363 3.952835,2.89015 4.913688,5.10268 0.699296,1.61025 0.970292,3.41193 0.721332,5.14973 -0.24896,1.7378 -1.024445,3.40456 -2.233235,4.67765 -0.519081,0.54669 -1.118377,1.02265 -1.791863,1.36137 -0.673486,0.33873 -1.423072,0.53742 -2.176887,0.52851 -1.162935,-0.0138 -2.288788,-0.52599 -3.160017,-1.29642 -0.871229,-0.77044 -1.501891,-1.78506 -1.942663,-2.86132 -0.682873,-1.6674 -0.928365,-3.49558 -0.84904,-5.29565 0.07933,-1.80008 0.476394,-3.57563 1.038029,-5.28768 1.006454,-3.06801 2.548576,-5.95948 4.535715,-8.50446 l 2.078868,5.48065 z"
       id="path834"
       inkscape:connector-curvature="0"
       inkscape:path-effect="#path-effect836"
       inkscape:original-d="m 76.918155,156.58184 c 0,0 3.276057,3.40152 4.913688,5.10268 1.637633,1.70116 -1.007671,6.55132 -1.511903,9.82738 -0.504232,3.27606 -2.645569,1.25966 -3.96875,1.88988 -1.323181,0.63023 -3.40152,-2.77209 -5.10268,-4.15774 -1.701157,-1.38564 0.126259,-7.05582 0.188989,-10.58333 0.06273,-3.52751 4.535715,-8.50446 4.535715,-8.50446 0,0 2.078868,5.48065 2.078868,5.48065 0,0 -1.133927,0.94494 -1.133927,0.94494 z" />
    <path
       style="fill:#3f3e3b;fill-opacity:1;stroke:none;stroke-width:0.26458332px;stroke-linecap:butt;stroke-linejoin:miter;stroke-opacity:1"
       d="m 75.784225,145.05357 c -1.2865,0.82163 -2.391171,1.9263 -3.212798,3.2128 -0.698462,1.09365 -1.190609,2.30865 -1.88988,3.40178 -0.521809,0.81572 -1.166878,1.56749 -1.974126,2.10231 -0.807248,0.53481 -1.78827,0.84042 -2.750578,0.73252 -1.089286,-0.12214 -2.08341,-0.77284 -2.734599,-1.65455 -0.65119,-0.88171 -0.977491,-1.97614 -1.045161,-3.07016 -0.07451,-1.20462 0.149702,-2.40563 0.377975,-3.59077 0.568866,-2.95343 1.200499,-5.97953 2.834823,-8.50447 1.239292,-1.91464 2.988761,-3.43443 4.724701,-4.91369 0.816534,-0.6958 1.635489,-1.38876 2.456845,-2.07886 z"
       id="path838"
       inkscape:connector-curvature="0"
       inkscape:path-effect="#path-effect840"
       inkscape:original-d="m 75.784225,145.05357 c 0,0 -2.141601,2.1416 -3.212798,3.2128 -1.071195,1.0712 -1.259655,2.26759 -1.88988,3.40178 -0.630224,1.13419 -3.149536,1.88962 -4.724704,2.83483 -1.575165,0.9452 -2.519574,-3.15007 -3.77976,-4.72471 -1.260184,-1.57463 0.252248,-2.39411 0.377975,-3.59077 0.125728,-1.19666 1.890147,-5.66991 2.834823,-8.50447 0.944676,-2.83455 3.150066,-3.27606 4.724701,-4.91369 1.574636,-1.63763 2.456845,-2.07886 2.456845,-2.07886 0,0 3.212798,14.36309 3.212798,14.36309 z" />
    <path
       style="fill:#3f3e3b;fill-opacity:1;stroke:none;stroke-width:0.26458332px;stroke-linecap:butt;stroke-linejoin:miter;stroke-opacity:1"
       d="m 70.492558,122.94196 c -1.932641,1.98675 -4.355642,3.49294 -6.992559,4.34673 -1.028643,0.33306 -2.100166,0.56948 -3.181253,0.55265 -1.081088,-0.0168 -2.176891,-0.30028 -3.055354,-0.93063 -0.645882,-0.46346 -1.159574,-1.1058 -1.483825,-1.83162 -0.324251,-0.72582 -0.459861,-1.53298 -0.406057,-2.32611 0.108362,-1.5974 0.955769,-3.0464 1.889882,-4.34673 1.914103,-2.66453 4.317899,-5.01365 7.181548,-6.61459 1.310234,-0.73249 2.709788,-1.30504 4.157737,-1.70089 z"
       id="path842"
       inkscape:connector-curvature="0"
       inkscape:path-effect="#path-effect844"
       inkscape:original-d="m 70.492558,122.94196 c 0,0 -4.661442,2.89755 -6.992559,4.34673 -2.331117,1.44917 -4.157474,-0.25225 -6.236607,-0.37798 -2.079133,-0.12573 -1.259655,-2.77209 -1.889882,-4.15773 -0.630224,-1.38565 1.260187,-2.89809 1.889882,-4.34673 0.629695,-1.44865 4.787963,-4.40999 7.181548,-6.61459 2.393585,-2.20459 4.157737,-1.70089 4.157737,-1.70089 0,0 1.889881,12.85119 1.889881,12.85119 z" />
    <path
       style="fill:#3f3e3b;fill-opacity:1;stroke:none;stroke-width:0.26458332px;stroke-linecap:butt;stroke-linejoin:miter;stroke-opacity:1"
       d="m 65.767857,102.34226 c -2.12724,0.33026 -4.361763,-0.076 -6.236608,-1.13393 -0.726655,-0.41003 -1.40461,-0.91902 -1.945294,-1.554485 -0.540685,-0.63546 -0.940335,-1.402441 -1.078515,-2.225275 -0.09597,-0.571506 -0.06091,-1.178031 0.188987,-1.700892 0.239722,-0.50158 0.662585,-0.897554 1.133903,-1.192358 0.471317,-0.294804 0.993251,-0.497471 1.51193,-0.697524 1.320824,-0.509438 2.643756,-1.013412 3.96875,-1.511903 z"
       id="path846"
       inkscape:connector-curvature="0"
       inkscape:path-effect="#path-effect848"
       inkscape:original-d="m 65.767857,102.34226 c 0,0 -4.157475,-0.75622 -6.236608,-1.13393 -2.079133,-0.37771 -2.015609,-2.520105 -3.023809,-3.77976 -1.008203,-1.259655 0.126257,-1.134192 0.188987,-1.700892 0.06273,-0.566701 1.764154,-1.260187 2.645833,-1.889882 0.881682,-0.629695 3.96875,-1.511903 3.96875,-1.511903 0,0 2.456847,10.016367 2.456847,10.016367 z" />
    <path
       style="fill:#3f3e3b;fill-opacity:1;stroke:none;stroke-width:0.26458332px;stroke-linecap:butt;stroke-linejoin:miter;stroke-opacity:1"
       d="m 162.24628,211.76637 c -3.29445,-2.58524 -6.73315,-4.98713 -10.29985,-7.18155 -4.11456,-2.53149 -8.42819,-4.79869 -13.04018,-6.23661 -3.88588,-1.21153 -7.96315,-1.82872 -11.71726,-3.40178 -4.02598,-1.68698 -7.54491,-4.42547 -10.58334,-7.55953 -3.51576,-3.62642 -6.43044,-7.79031 -9.82738,-11.52827 -2.31144,-2.54348 -4.84391,-4.88602 -7.559521,-6.99256 L 110.36905,98.373511 c 2.72733,2.367079 5.37516,4.825779 7.9375,7.370539 5.37124,5.33439 10.45071,11.17864 13.41815,18.14285 1.11227,2.61035 1.91175,5.34247 2.9398,7.98712 1.02806,2.64465 2.31206,5.24069 4.24175,7.32092 1.8937,2.04143 4.32695,3.49898 6.80221,4.77438 2.47526,1.27539 5.03675,2.40229 7.3719,3.91907 5.05968,3.28648 8.78217,8.20751 12.85119,12.6622 2.46652,2.7003 5.09434,5.25915 7.9375,7.55953 3.1672,2.56257 6.58692,4.79327 10.01636,6.99256 0.83356,0.53456 1.68869,1.08668 2.26786,1.88988 0.6991,0.96952 0.92076,2.20674 0.94494,3.40178 0.0361,1.78678 -0.32445,3.5574 -0.75595,5.29167 -1.34245,5.39555 -3.3911,10.61265 -6.04762,15.49702 -1.92127,3.53252 -4.1628,6.89607 -6.75632,9.96912 -0.50344,0.59652 -1.02174,1.18374 -1.6064,1.7009 -1.06704,0.94384 -2.40312,1.65686 -3.82701,1.70089 -1.10469,0.0342 -2.19099,-0.33536 -3.15772,-0.87101 -0.96674,-0.53566 -1.83144,-1.23427 -2.70091,-1.91656 z"
       id="path850"
       inkscape:connector-curvature="0"
       inkscape:path-effect="#path-effect852"
       inkscape:original-d="m 162.24628,211.76637 c -0.44124,-0.5037 -5.82687,-4.284 -10.29985,-7.18155 -4.47299,-2.89755 -8.69319,-4.15801 -13.04018,-6.23661 -4.34699,-2.0786 -7.81125,-2.26812 -11.71726,-3.40178 -3.90602,-1.13367 -7.05529,-5.03995 -10.58334,-7.55953 -3.52804,-2.51957 -6.55132,-7.68578 -9.82738,-11.52827 -3.27605,-3.8425 -7.559521,-6.99256 -7.559521,-6.99256 L 110.36905,98.373511 c 0,0 5.29193,4.913429 7.9375,7.370539 2.64557,2.45711 8.9457,12.09497 13.41815,18.14285 4.47246,6.04789 4.78796,10.2051 7.18155,15.30804 2.39358,5.10294 9.44967,5.79537 14.17411,8.69345 4.72443,2.89808 8.56772,8.4412 12.85119,12.6622 4.28346,4.221 5.29193,5.03942 7.9375,7.55953 2.64556,2.5201 6.67784,4.66144 10.01636,6.99256 3.33853,2.33111 1.51217,1.25965 2.26786,1.88988 0.75569,0.63022 0.63023,2.26759 0.94494,3.40178 0.31472,1.1342 -0.5037,3.52752 -0.75595,5.29167 -0.25225,1.76415 -4.03148,10.33108 -6.04762,15.49702 -2.01614,5.16594 -3.92124,6.06311 -6.75632,9.96912 -2.83509,3.90602 -0.91318,1.25967 -1.6064,1.7009 -0.69322,0.44124 -2.81881,1.51163 -3.82701,1.70089 -1.0082,0.18925 -5.41739,-2.28386 -5.85863,-2.78757 z"
       sodipodi:nodetypes="ccscscccsscscscccsssccc" />
    <path
       style="fill:#302f2d;fill-opacity:1;stroke:none;stroke-width:0.26458332px;stroke-linecap:butt;stroke-linejoin:miter;stroke-opacity:1"
       d="m 59.909225,80.041664 c 5.643299,20.008966 8.791649,40.630006 13.607142,60.854166 1.348639,5.66403 2.828592,11.29928 3.96875,17.00893 0.689539,3.45306 1.264675,6.96631 2.645834,10.20536 0.489204,1.14727 1.08317,2.2616 1.889881,3.21279 0.857907,1.01155 1.961136,1.82902 3.212799,2.26786 1.442284,0.50567 3.011834,0.49496 4.535712,0.37798 1.901627,-0.14598 3.787469,-0.44789 5.669645,-0.75596 7.379272,-1.20784 14.741812,-2.51533 22.111602,-3.77976 2.78967,-0.47862 5.58585,-0.95227 8.31548,-1.70089 1.15273,-0.31614 2.3323,-0.70354 3.2128,-1.5119 0.56528,-0.51896 0.97862,-1.19067 1.24877,-1.90892 0.27015,-0.71825 0.40134,-1.48313 0.45212,-2.24882 0.15213,-2.29403 -0.40424,-4.56898 -0.94494,-6.80357 -2.45574,-10.14905 -4.6726,-20.35633 -6.61458,-30.61608 -1.75108,-9.25117 -3.27855,-18.54421 -5.10268,-27.781245 -1.59922,-8.098154 -3.42573,-16.149587 -5.29167,-24.190476 -0.53244,-2.294451 -1.07026,-4.595353 -1.88988,-6.803569 -0.6448,-1.737207 -1.49043,-3.449454 -2.83482,-4.724705 -1.33042,-1.262 -3.09613,-2.024638 -4.91369,-2.267857 -1.8855,-0.252311 -3.799081,0.03191 -5.669644,0.377978 -3.426978,0.63401 -6.811229,1.476626 -10.205357,2.267855 -4.585019,1.068847 -9.191144,2.04457 -13.796132,3.023812 -2.272442,0.483231 -4.545022,0.967412 -6.803569,1.511903 -1.186263,0.285985 -2.37492,0.590747 -3.491871,1.082098 -1.116951,0.491351 -2.167594,1.180939 -2.933726,2.130701 -1.097738,1.36085 -1.532404,3.165399 -1.511903,4.91369 0.0234,1.995188 0.592298,3.938222 1.133927,5.858629 z"
       id="path858"
       inkscape:connector-curvature="0"
       inkscape:path-effect="#path-effect860"
       inkscape:original-d="m 59.909225,80.041664 c 0.377711,1.953144 9.071695,40.569186 13.607142,60.854166 4.535451,20.28499 2.646098,11.33902 3.96875,17.00893 1.322652,5.66991 1.764155,6.80331 2.645834,10.20536 0.881681,3.40205 1.260186,2.1416 1.889881,3.21279 0.629695,1.0712 2.14213,1.51164 3.212799,2.26786 1.070668,0.75622 3.024073,0.25172 4.535712,0.37798 1.511641,0.12626 3.780028,-0.50424 5.669645,-0.75596 1.889614,-0.25171 14.741332,-2.5201 22.111602,-3.77976 7.37028,-1.25965 5.54392,-1.13419 8.31548,-1.70089 2.77156,-0.5667 2.14213,-1.0082 3.2128,-1.5119 1.07066,-0.50371 1.13419,-2.77209 1.70089,-4.15774 0.5667,-1.38565 -0.6297,-4.53598 -0.94494,-6.80357 -0.31524,-2.2676 -4.40946,-20.41098 -6.61458,-30.61608 -2.20513,-10.20509 -3.40153,-18.52109 -5.10268,-27.781245 -1.70116,-9.260152 -3.52751,-16.127248 -5.29167,-24.190476 -1.76415,-8.063227 -1.25965,-4.535979 -1.88988,-6.803569 -0.63022,-2.267593 -1.88962,-3.150069 -2.83482,-4.724705 -0.94521,-1.574636 -3.27553,-1.512167 -4.91369,-2.267857 -1.63816,-0.755687 -3.779497,0.251722 -5.669644,0.377978 -1.890146,0.126257 -6.803308,1.511639 -10.205357,2.267855 -3.40205,0.756219 -9.197155,2.015609 -13.796132,3.023812 -4.598974,1.0082 -4.535447,1.007671 -6.803569,1.511903 -2.268123,0.504233 -4.283467,2.141601 -6.425597,3.212799 -2.14213,1.071197 -1.007671,3.275528 -1.511903,4.91369 -0.504233,1.63816 0.756216,3.905488 1.133927,5.858629 z" />
    <path
       style="fill:#3f3e3b;fill-opacity:1;stroke:none;stroke-width:0.26458332px;stroke-linecap:butt;stroke-linejoin:miter;stroke-opacity:1"
       d="m 64.282215,81.590369 c 4.820187,17.095282 7.509554,34.713181 11.622855,51.992171 1.151981,4.8392 2.416119,9.65382 3.390001,14.53198 0.588978,2.95018 1.080229,5.95177 2.260001,8.71919 0.417854,0.98017 0.92519,1.93222 1.614284,2.74492 0.73276,0.8642 1.675089,1.56266 2.744288,1.93761 1.231935,0.43202 2.572622,0.42288 3.874281,0.32293 1.624325,-0.12472 3.235159,-0.38266 4.84286,-0.64588 6.303175,-1.03197 12.592055,-2.14908 18.887135,-3.22932 2.38287,-0.4089 4.77131,-0.81355 7.10286,-1.4532 0.98465,-0.27013 1.99221,-0.60117 2.74429,-1.29173 0.48291,-0.44341 0.83598,-1.01731 1.06673,-1.63097 0.23075,-0.61365 0.34278,-1.26712 0.38613,-1.92129 0.12989,-1.95995 -0.34532,-3.9036 -0.80715,-5.81279 -2.09753,-8.67112 -3.99118,-17.39193 -5.64999,-26.15756 -1.49575,-7.90395 -2.80047,-15.84366 -4.35858,-23.735553 -1.366,-6.918836 -2.92615,-13.797773 -4.52,-20.667699 -0.4548,-1.960306 -0.91419,-3.92612 -1.61428,-5.812789 -0.55074,-1.484179 -1.273,-2.947073 -2.42143,-4.036662 -1.13635,-1.07813 -2.64457,-1.729776 -4.19714,-1.937598 -1.61054,-0.215581 -3.245082,0.02726 -4.84286,0.322934 -2.927242,0.541691 -5.817974,1.261588 -8.717144,1.937597 -3.916394,0.913198 -7.850819,1.74686 -11.784286,2.583464 -1.941065,0.412843 -3.882251,0.826482 -5.811426,1.291729 -1.013301,0.244372 -2.02864,0.50481 -2.982711,0.924626 -0.95407,0.419817 -1.85148,1.00896 -2.50586,1.820306 -0.937772,1.162715 -1.308971,2.704469 -1.291428,4.198127 0.02002,1.704617 0.505941,3.364696 0.96857,5.005457 z"
       id="path858-1"
       inkscape:connector-curvature="0"
       inkscape:path-effect="#path-effect860-8"
       inkscape:original-d="m 64.282215,81.590369 c 0.322631,1.668714 7.748799,34.661221 11.622855,51.992171 3.874061,17.33096 2.260227,9.68776 3.390001,14.53198 1.129773,4.84421 1.506894,5.81257 2.260001,8.71919 0.753107,2.90662 1.076417,1.82972 1.614284,2.74492 0.537869,0.9152 1.829751,1.29151 2.744288,1.93761 0.914534,0.64609 2.583081,0.21505 3.874281,0.32293 1.291204,0.10791 3.228801,-0.43082 4.84286,-0.64588 1.614058,-0.21505 12.591655,-2.1531 18.887135,-3.22932 6.2955,-1.07622 4.73546,-0.96903 7.10286,-1.4532 2.36739,-0.48417 1.82975,-0.86137 2.74429,-1.29173 0.91452,-0.43035 0.9688,-2.3684 1.45286,-3.55226 0.48406,-1.18386 -0.53788,-3.87542 -0.80715,-5.81279 -0.26927,-1.93738 -3.76644,-17.43861 -5.64999,-26.15756 -1.88356,-8.71896 -2.9055,-15.82392 -4.35858,-23.735553 -1.45307,-7.911625 -3.0131,-13.77869 -4.52,-20.667699 -1.50688,-6.889007 -1.07596,-3.875421 -1.61428,-5.812789 -0.53831,-1.937372 -1.61407,-2.691335 -2.42143,-4.036662 -0.80738,-1.345328 -2.79788,-1.291956 -4.19714,-1.937598 -1.399266,-0.645639 -3.228347,0.215065 -4.84286,0.322934 -1.614513,0.10787 -5.811206,1.291505 -8.717144,1.937597 -2.905938,0.646092 -7.855963,1.722082 -11.784286,2.583464 -3.928319,0.861379 -3.874056,0.860927 -5.811426,1.291729 -1.937369,0.430804 -3.658821,1.829728 -5.488571,2.744932 -1.829751,0.915201 -0.860726,2.798524 -1.291428,4.198127 -0.430702,1.399599 0.64594,3.336744 0.96857,5.005457 z" />
    <path
       style="fill:none;stroke:#d8d738;stroke-width:2;stroke-linecap:butt;stroke-linejoin:miter;stroke-miterlimit:4;stroke-dasharray:none;stroke-opacity:1"
       d="m 104.22693,166.97619 c 0.90661,0.02 1.78645,-0.27749 2.64584,-0.56696 0.52565,-0.17706 1.05909,-0.35596 1.51937,-0.66548 0.23014,-0.15476 0.44026,-0.34193 0.60593,-0.56434 0.16567,-0.22242 0.28601,-0.48099 0.33154,-0.75456 0.0649,-0.39004 -0.0261,-0.79808 -0.22028,-1.14253 -0.19416,-0.34445 -0.48691,-0.62746 -0.81915,-0.84184 -0.61559,-0.39721 -1.36125,-0.56191 -2.09387,-0.5604 -0.73261,0.002 -1.45655,0.16121 -2.15836,0.37141 -0.48162,0.14425 -0.9608,0.31493 -1.38488,0.58497 -0.42407,0.27005 -0.79289,0.64828 -0.97748,1.11592 -0.13574,0.3439 -0.16685,0.72697 -0.0976,1.09015 0.0692,0.36319 0.23758,0.70578 0.47558,0.98872 0.26209,0.31159 0.60642,0.55007 0.98263,0.7058 0.3762,0.15574 0.78366,0.23017 1.19073,0.23914 z"
       id="path880"
       inkscape:connector-curvature="0"
       inkscape:path-effect="#path-effect882"
       inkscape:original-d="m 104.22693,166.97619 c 0.72419,0.31524 1.76416,-0.37824 2.64584,-0.56696 0.88168,-0.18873 1.63816,-1.32319 2.45684,-1.98438 0.81868,-0.66119 -0.69269,-1.32318 -1.03943,-1.98437 -0.34675,-0.6612 -2.83456,-0.12626 -4.25223,-0.18899 -1.41768,-0.0627 -1.57464,1.13366 -2.36236,1.70089 -0.78771,0.56723 0.25225,1.38565 0.37798,2.07887 0.12573,0.69322 1.44917,0.62969 2.17336,0.94494 z" />
    <path
       style="fill:none;stroke:#d8d738;stroke-width:2;stroke-linecap:butt;stroke-linejoin:miter;stroke-miterlimit:4;stroke-dasharray:none;stroke-opacity:1"
       d="m 98.935266,142.02976 c 0.98454,0.21283 2.018664,0.25204 2.994994,0.004 0.97633,-0.24777 1.89161,-0.79721 2.48566,-1.61067 0.5472,-0.74932 0.80018,-1.69199 0.78751,-2.61976 -0.0127,-0.92776 -0.28031,-1.8409 -0.69301,-2.67191 -0.5825,-1.17291 -1.46696,-2.20529 -2.57839,-2.89792 -1.11143,-0.69262 -2.451926,-1.03335 -3.752715,-0.88184 -1.194405,0.13912 -2.339496,0.6971 -3.16903,1.56764 -0.829534,0.87053 -1.333271,2.04954 -1.366685,3.25156 -0.03968,1.42731 0.581161,2.83573 1.571013,3.8648 0.989852,1.02907 2.325026,1.69214 3.720653,1.99383 z"
       id="path884"
       inkscape:connector-curvature="0"
       inkscape:path-effect="#path-effect886"
       inkscape:original-d="m 98.935266,142.02976 c 1.763624,1.95314 3.654034,-1.0712 5.480654,-1.6064 1.82662,-0.5352 0.0633,-3.52804 0.0945,-5.29167 0.0312,-1.76362 -4.22047,-2.5201 -6.331105,-3.77976 -2.110632,-1.25965 -3.023545,3.21253 -4.535715,4.8192 -1.512168,1.60666 3.528044,3.90549 5.291666,5.85863 z" />
    <path
       style="fill:none;stroke:#d8d738;stroke-width:2;stroke-linecap:butt;stroke-linejoin:miter;stroke-miterlimit:4;stroke-dasharray:none;stroke-opacity:1"
       d="m 96.289433,124.35937 c 0.621845,-0.0498 1.222222,-0.28889 1.731516,-0.64916 0.509294,-0.36027 0.929434,-0.83884 1.255009,-1.37099 0.651151,-1.06428 0.920182,-2.31717 1.076722,-3.55499 0.3525,-2.78746 0.18749,-5.61451 -0.0945,-8.40998 -0.422184,-4.1853 -1.104839,-8.34057 -1.889879,-12.473211 -0.867333,-4.565841 -1.870096,-9.139798 -3.685267,-13.418153 -0.436573,-1.029001 -0.924664,-2.04743 -1.608888,-2.931329 -0.684225,-0.883898 -1.581797,-1.632284 -2.643345,-1.982362 -1.342583,-0.442758 -2.873786,-0.197074 -4.063243,0.566965 -1.133588,0.728153 -1.949914,1.883028 -2.444563,3.136244 -0.49465,1.253216 -0.688113,2.605889 -0.768235,3.950809 -0.211402,3.548562 0.340256,7.097917 1.039437,10.583333 1.119824,5.582324 2.621387,11.081484 4.252229,16.536454 0.468174,1.56599 0.949304,3.13458 1.636531,4.61756 0.687227,1.48297 1.591075,2.88658 2.804691,3.9814 0.469105,0.42319 0.985827,0.8002 1.560735,1.06217 0.574908,0.26197 1.21129,0.40573 1.84105,0.35524 z"
       id="path888"
       inkscape:connector-curvature="0"
       inkscape:path-effect="#path-effect890"
       inkscape:original-d="m 96.289433,124.35937 c 1.133665,0.47274 2.709095,-3.71703 4.063247,-5.57514 1.35415,-1.85812 -0.0627,-5.60692 -0.0945,-8.40998 -0.0318,-2.80306 -1.259652,-8.31574 -1.889879,-12.473211 -0.630224,-4.157472 -2.456579,-8.9457 -3.685267,-13.418153 -1.228686,-4.472453 -2.834556,-3.276058 -4.252233,-4.913691 -1.417674,-1.637633 -2.708563,0.377711 -4.063243,0.566965 -1.35468,0.189251 -2.141601,4.724437 -3.212798,7.087053 -1.071195,2.362615 0.693221,7.055291 1.039437,10.583333 0.346212,3.528044 2.835084,11.024044 4.252229,16.536454 1.417148,5.51242 2.961079,5.73238 4.441222,8.59896 1.480143,2.86659 2.268122,0.94468 3.401785,1.41741 z" />
    <path
       style="fill:#302f2d;fill-opacity:1;stroke:none;stroke-width:0.26458332px;stroke-linecap:butt;stroke-linejoin:miter;stroke-opacity:1"
       d="m 149.79196,142.5535 c -3.81031,-5.40879 -6.83855,-11.34407 -10.76737,-16.6674 -2.98739,-4.04775 -6.48403,-7.71953 -10.38333,-10.89825 -2.70424,-2.20451 -5.60075,-4.17191 -8.6383,-5.88831 -2.20503,-1.24598 -4.52499,-2.37352 -7.02129,-2.80144 -0.64191,-0.11004 -1.30598,-0.17731 -1.88847,-0.46862 -0.43265,-0.21637 -0.79822,-0.54655 -1.12874,-0.89976 -0.33052,-0.35322 -0.63187,-0.73337 -0.97161,-1.07772 -0.60244,-0.61061 -1.31512,-1.09853 -2.00178,-1.6126 -0.58205,-0.43576 -1.1506,-0.89431 -1.78066,-1.2572 -0.63007,-0.36289 -1.3333,-0.62948 -2.0603,-0.64156 -0.57282,-0.01 -1.14543,0.14167 -1.64696,0.41858 -0.50153,0.27692 -0.93194,0.67772 -1.25747,1.14915 -0.447689,0.64834 -0.693837,1.41898 -0.813692,2.1977 -0.119855,0.77872 -0.118897,1.5705 -0.108841,2.35833 0.03339,2.61583 0.174642,5.28317 1.108683,7.72678 1.19062,3.11487 3.69467,5.71085 6.77926,6.97785 1.32881,0.54581 2.74794,0.85178 4.06619,1.42264 2.55986,1.10852 4.6048,3.15965 6.26286,5.40299 1.96489,2.65847 3.47006,5.63248 5.42387,8.2991 3.13218,4.2749 7.34997,7.65954 11.87783,10.41341 8.09269,4.92202 17.32699,7.95376 26.76228,8.7864 -4.46059,-3.79377 -8.43979,-8.15293 -11.81216,-12.94007 z"
       id="path854"
       inkscape:connector-curvature="0"
       inkscape:path-effect="#path-effect856"
       inkscape:original-d="m 149.79196,142.5535 c -3.97235,-4.79945 -7.17806,-11.11193 -10.76737,-16.6674 -3.58931,-5.55548 -6.92203,-7.26583 -10.38333,-10.89825 -3.4613,-3.63243 -5.75869,-3.92587 -8.6383,-5.88831 -2.87962,-1.96245 -4.68067,-1.86795 -7.02129,-2.80144 -2.3406,-0.93348 -1.25879,-0.31273 -1.88847,-0.46862 -0.62968,-0.15588 -1.40005,-1.31865 -2.10035,-1.97748 -0.70031,-0.65884 -1.33434,-1.07539 -2.00178,-1.6126 -0.66744,-0.5372 -2.56045,-1.26616 -3.84096,-1.89876 -1.2805,-0.632598 -1.93611,1.04483 -2.90443,1.56773 -0.968343,0.5229 -0.614833,3.03703 -0.922533,4.55603 -0.30769,1.519 0.739313,5.15087 1.108683,7.72678 0.36937,2.57592 4.51969,4.65158 6.77926,6.97785 2.25956,2.32628 2.11708,0.97013 4.06619,1.42264 1.94911,0.45252 4.46014,3.8016 6.26286,5.40299 1.80271,1.60139 4.20479,5.23495 5.42387,8.2991 1.21908,3.06416 8.21802,6.7688 11.87783,10.41341 3.6598,3.64459 18.64633,6.93938 26.76228,8.7864 -5.02288,-2.16647 -7.83981,-8.14061 -11.81216,-12.94007 z"
       sodipodi:nodetypes="sscccccsccscccccscs" />
  </g>
</svg>
