<?xml version="1.0" encoding="UTF-8" standalone="no"?>
<!-- Created with Inkscape (http://www.inkscape.org/) -->

<svg
   xmlns:dc="http://purl.org/dc/elements/1.1/"
   xmlns:cc="http://creativecommons.org/ns#"
   xmlns:rdf="http://www.w3.org/1999/02/22-rdf-syntax-ns#"
   xmlns:svg="http://www.w3.org/2000/svg"
   xmlns="http://www.w3.org/2000/svg"
   xmlns:sodipodi="http://sodipodi.sourceforge.net/DTD/sodipodi-0.dtd"
   xmlns:inkscape="http://www.inkscape.org/namespaces/inkscape"
   width="113.39417mm"
   height="205.77892mm"
   viewBox="0 0 113.39416 205.77892"
   version="1.1"
   id="svg8"
   inkscape:version="0.92.3 (2405546, 2018-03-11)"
   sodipodi:docname="transferMoney.svg">
  <defs
     id="defs2">
    <inkscape:path-effect
       effect="spiro"
       id="path-effect2090"
       is_visible="true" />
    <inkscape:path-effect
       effect="spiro"
       id="path-effect2086"
       is_visible="true" />
    <inkscape:path-effect
       effect="spiro"
       id="path-effect2082"
       is_visible="true" />
    <inkscape:path-effect
       effect="spiro"
       id="path-effect2078"
       is_visible="true" />
    <inkscape:path-effect
       effect="spiro"
       id="path-effect2074"
       is_visible="true" />
    <inkscape:path-effect
       effect="spiro"
       id="path-effect2070"
       is_visible="true" />
    <inkscape:path-effect
       effect="spiro"
       id="path-effect2066"
       is_visible="true" />
    <inkscape:path-effect
       effect="spiro"
       id="path-effect2062"
       is_visible="true" />
    <inkscape:path-effect
       effect="spiro"
       id="path-effect2058"
       is_visible="true" />
    <inkscape:path-effect
       effect="spiro"
       id="path-effect2054"
       is_visible="true" />
    <inkscape:path-effect
       effect="spiro"
       id="path-effect2050"
       is_visible="true" />
    <inkscape:path-effect
       effect="spiro"
       id="path-effect2046"
       is_visible="true" />
    <inkscape:path-effect
       effect="spiro"
       id="path-effect2042"
       is_visible="true" />
    <inkscape:path-effect
       effect="spiro"
       id="path-effect2038"
       is_visible="true" />
    <inkscape:path-effect
       effect="spiro"
       id="path-effect2034"
       is_visible="true" />
    <inkscape:path-effect
       effect="spiro"
       id="path-effect2030"
       is_visible="true" />
    <inkscape:path-effect
       effect="spiro"
       id="path-effect2026"
       is_visible="true" />
    <inkscape:path-effect
       effect="spiro"
       id="path-effect2022"
       is_visible="true" />
    <inkscape:path-effect
       effect="spiro"
       id="path-effect2002"
       is_visible="true" />
    <inkscape:path-effect
       effect="spiro"
       id="path-effect1998"
       is_visible="true" />
    <inkscape:path-effect
       effect="spiro"
       id="path-effect1994"
       is_visible="true" />
    <inkscape:path-effect
       effect="spiro"
       id="path-effect1990"
       is_visible="true" />
    <inkscape:path-effect
       effect="spiro"
       id="path-effect1986"
       is_visible="true" />
    <inkscape:path-effect
       effect="spiro"
       id="path-effect1982"
       is_visible="true" />
    <inkscape:path-effect
       effect="spiro"
       id="path-effect1974"
       is_visible="true" />
    <inkscape:path-effect
       effect="spiro"
       id="path-effect1970"
       is_visible="true" />
    <inkscape:path-effect
       effect="spiro"
       id="path-effect1966"
       is_visible="true" />
    <inkscape:path-effect
       effect="spiro"
       id="path-effect1962"
       is_visible="true" />
    <inkscape:path-effect
       effect="spiro"
       id="path-effect1958"
       is_visible="true" />
    <inkscape:path-effect
       effect="spiro"
       id="path-effect1828"
       is_visible="true" />
    <inkscape:path-effect
       effect="spiro"
       id="path-effect1820"
       is_visible="true" />
    <inkscape:path-effect
       effect="spiro"
       id="path-effect890"
       is_visible="true" />
    <inkscape:path-effect
       effect="spiro"
       id="path-effect886"
       is_visible="true" />
    <inkscape:path-effect
       effect="spiro"
       id="path-effect882"
       is_visible="true" />
    <inkscape:path-effect
       effect="spiro"
       id="path-effect860"
       is_visible="true" />
    <inkscape:path-effect
       effect="spiro"
       id="path-effect856"
       is_visible="true" />
    <inkscape:path-effect
       effect="spiro"
       id="path-effect852"
       is_visible="true" />
    <inkscape:path-effect
       effect="spiro"
       id="path-effect848"
       is_visible="true" />
    <inkscape:path-effect
       effect="spiro"
       id="path-effect844"
       is_visible="true" />
    <inkscape:path-effect
       effect="spiro"
       id="path-effect840"
       is_visible="true" />
    <inkscape:path-effect
       effect="spiro"
       id="path-effect836"
       is_visible="true" />
    <inkscape:path-effect
       effect="spiro"
       id="path-effect832"
       is_visible="true" />
    <inkscape:path-effect
       effect="spiro"
       id="path-effect860-8"
       is_visible="true" />
    <inkscape:path-effect
       effect="spiro"
       id="path-effect1820-6"
       is_visible="true" />
    <inkscape:path-effect
       effect="spiro"
       id="path-effect1828-7"
       is_visible="true" />
    <inkscape:path-effect
       effect="spiro"
       id="path-effect1820-9"
       is_visible="true" />
    <inkscape:path-effect
       effect="spiro"
       id="path-effect1828-6"
       is_visible="true" />
    <inkscape:path-effect
       effect="spiro"
       id="path-effect1828-7-7"
       is_visible="true" />
    <inkscape:path-effect
       effect="spiro"
       id="path-effect1828-7-6"
       is_visible="true" />
    <inkscape:path-effect
       effect="spiro"
       id="path-effect1828-7-3"
       is_visible="true" />
    <inkscape:path-effect
       effect="spiro"
       id="path-effect1828-7-1"
       is_visible="true" />
    <inkscape:path-effect
       effect="spiro"
       id="path-effect1828-7-0"
       is_visible="true" />
    <inkscape:path-effect
       effect="spiro"
       id="path-effect1828-7-8"
       is_visible="true" />
  </defs>
  <sodipodi:namedview
     id="base"
     pagecolor="#ffffff"
     bordercolor="#666666"
     borderopacity="1.0"
     inkscape:pageopacity="0.0"
     inkscape:pageshadow="2"
     inkscape:zoom="0.49497475"
     inkscape:cx="-130.45592"
     inkscape:cy="348.30471"
     inkscape:document-units="mm"
     inkscape:current-layer="layer1"
     showgrid="false"
     inkscape:snap-global="false"
     inkscape:window-width="1536"
     inkscape:window-height="801"
     inkscape:window-x="-8"
     inkscape:window-y="-8"
     inkscape:window-maximized="1"
     fit-margin-top="0"
     fit-margin-left="0"
     fit-margin-right="0"
     fit-margin-bottom="0" />
  <metadata
     id="metadata5">
    <rdf:RDF>
      <cc:Work
         rdf:about="">
        <dc:format>image/svg+xml</dc:format>
        <dc:type
           rdf:resource="http://purl.org/dc/dcmitype/StillImage" />
        <dc:title></dc:title>
      </cc:Work>
    </rdf:RDF>
  </metadata>
  <g
     inkscape:label="Layer 1"
     inkscape:groupmode="layer"
     id="layer1"
     transform="translate(-29.641064,-44.422922)">
    <path
       style="fill:#3f3e3b;fill-opacity:1;stroke:#000000;stroke-width:0.26458332px;stroke-linecap:butt;stroke-linejoin:miter;stroke-opacity:1"
       d="M 81.948902,51.332625 C 70.153042,55.489252 58.704548,61.111327 49.309845,69.3672 41.891749,75.886071 35.813873,84.086308 32.572942,93.41477 c -4.816984,13.86486 -3.057086,29.42503 2.533329,42.9965 5.121039,12.432 13.783682,23.88077 25.852695,29.80686 6.362238,3.12396 13.648682,4.62008 20.634924,3.4244 5.749231,-0.98397 11.059593,-3.72046 15.931366,-6.9279 10.604774,-6.98189 19.582394,-16.36885 26.312184,-27.13537 10.10494,-16.16619 15.02227,-35.0505 17.91981,-53.893529 0.64073,-4.166769 1.19092,-8.365298 1.14274,-12.580768 -0.0377,-3.30253 -0.44935,-6.622334 -1.50398,-9.752174 -1.05462,-3.12984 -2.77313,-6.069812 -5.1896,-8.321216 -2.82861,-2.635398 -6.49242,-4.228238 -10.23736,-5.188354 -7.9175,-2.029867 -16.28984,-1.40255 -24.32274,0.107314 -6.695894,1.25856 -13.271545,3.117746 -19.697408,5.382092 z"
       id="path830"
       inkscape:connector-curvature="0"
       inkscape:path-effect="#path-effect832"
       inkscape:original-d="M 81.948902,51.332625 C 75.382833,53.126938 63.332397,59.973627 49.309845,69.3672 35.287293,78.760783 38.152177,85.398644 32.572942,93.41477 c -5.579225,8.01615 1.68915,28.66407 2.533329,42.9965 0.844179,14.33242 17.235381,19.87097 25.852695,29.80686 8.617293,9.93588 13.75688,2.28267 20.634924,3.4244 6.878044,1.14174 10.621178,-4.61887 15.931366,-6.9279 5.310194,-2.30903 17.541724,-18.09051 26.312184,-27.13537 8.77048,-9.04485 8.80421,-32.54751 17.91981,-53.893529 9.11562,-21.346031 0.76209,-8.387442 1.14274,-12.580768 0.38066,-4.193317 -4.46212,-12.049193 -6.69358,-18.07339 -2.23146,-6.024187 -6.82464,-3.459172 -10.23736,-5.188354 -3.41272,-1.729182 -16.21492,0.07123 -24.32274,0.107314 -8.107863,0.03602 -13.13135,3.587789 -19.697408,5.382092 z"
       sodipodi:nodetypes="cscsssscscsscc" />
    <path
       style="fill:#d8d738;fill-opacity:1;stroke:none;stroke-width:0.26458332px;stroke-linecap:butt;stroke-linejoin:miter;stroke-opacity:1"
       d="m 45.601231,75.308707 c 13.892922,0.443335 27.798567,0.487905 41.694046,0.133635 5.61199,-0.143079 11.224797,-0.351218 16.837983,-0.26727 2.36992,0.03544 4.7483,0.123893 7.08264,0.534539 2.22877,0.392075 4.41353,1.081091 6.41447,2.138157 2.36573,1.24978 4.45364,3.00678 6.1472,5.07812 3.79457,4.641007 5.52699,10.903708 4.67721,16.83798 -0.754,5.265462 -3.53807,10.249582 -7.75081,13.497112 -1.80723,1.39317 -3.85535,2.46621 -6.01357,3.20723 -1.81371,0.62273 -3.70447,1.01262 -5.61266,1.20272 -1.19835,0.11939 -2.40416,0.16042 -3.60814,0.13363 -1.06977,-0.0238 -2.13769,-0.10106 -3.20723,-0.13363 -1.29131,-0.0393 -2.583572,-0.0135 -3.875407,0 -9.623496,0.1003 -19.261127,-0.48706 -28.86511,0.13363 -1.379581,0.0892 -2.761973,0.20328 -4.142677,0.13364 -1.069726,-0.054 -2.139483,-0.21809 -3.207234,-0.13364 -1.568206,0.12404 -3.108402,0.81923 -4.142679,2.00452 -0.950608,1.08941 -1.43968,2.56689 -1.336347,4.00904 0.127465,1.77894 1.163168,3.4601 2.672694,4.40995 0.858336,0.54009 1.846086,0.85006 2.846837,1.01419 1.000751,0.16413 2.018973,0.18727 3.033093,0.18853 1.692826,0.002 3.386213,-0.0558 5.078122,0 2.349272,0.0774 4.702657,0.37698 6.949008,1.06907 4.130568,1.2726 7.829834,3.89247 10.423509,7.34992 2.250456,2.99993 3.663453,6.59007 4.276315,10.28987 0.292344,1.76486 0.407433,3.5565 0.400902,5.34539 -0.0067,1.83268 -0.140754,3.66489 -0.400902,5.47903 l -15.501633,-0.13364 c -0.0071,-1.73806 0.03751,-3.47633 0.133633,-5.21175 0.07916,-1.4292 0.191388,-2.88231 -0.133633,-4.27631 -0.263304,-1.1293 -0.833694,-2.21318 -1.737251,-2.93997 -0.573369,-0.4612 -1.260863,-0.76499 -1.969585,-0.96291 -0.708722,-0.19791 -1.441563,-0.29395 -2.173094,-0.37344 -1.50894,-0.16397 -3.025774,-0.26012 -4.543581,-0.26727 -2.36188,-0.0111 -4.728629,0.19294 -7.082642,0 -2.861241,-0.23451 -5.686245,-1.06831 -8.151723,-2.53906 -3.260826,-1.94521 -5.805414,-4.94854 -7.617179,-8.28535 -2.488346,-4.58291 -3.663369,-10.0085 -2.539061,-15.10073 0.876971,-3.97199 3.110783,-7.57401 6.013564,-10.42351 3.157459,-3.0995 7.228315,-5.39532 11.626223,-5.87993 1.81746,-0.20027 3.65291,-0.0926 5.479026,0 2.759888,0.13988 5.522017,0.24463 8.285355,0.26727 6.014288,0.0493 12.026248,-0.29036 18.040694,-0.26727 3.786842,0.0145 7.576029,0.17282 11.358953,0 1.20247,-0.0549 2.40446,-0.14333 3.60814,-0.13364 1.16174,0.009 2.3383,0.10882 3.4745,-0.13363 1.66831,-0.356 3.14774,-1.46751 4.00905,-2.939967 0.48148,-0.823106 0.77841,-1.756964 0.83383,-2.708936 0.0554,-0.951973 -0.13349,-1.920521 -0.56657,-2.770087 -0.42184,-0.82751 -1.06994,-1.533262 -1.83884,-2.054324 -0.76891,-0.521063 -1.65611,-0.859549 -2.5711,-1.019277 -1.36384,-0.238083 -2.76075,-0.08388 -4.14268,0 -2.49082,0.151181 -4.989156,0.07121 -7.483546,0 C 93.042022,90.703526 89.300149,90.616528 85.558023,90.54307 72.107374,90.279033 58.653292,90.189933 45.200326,90.275801 Z"
       id="path1956"
       inkscape:connector-curvature="0"
       inkscape:path-effect="#path-effect1958"
       inkscape:original-d="m 45.601231,75.308707 c 0,0 27.796294,0.08882 41.694046,0.133635 13.897753,0.04481 11.225583,-0.178444 16.837983,-0.26727 5.61239,-0.08882 4.72202,0.356095 7.08264,0.534539 2.36061,0.178444 4.27658,1.425173 6.41447,2.138157 2.13789,0.712983 4.0984,3.385149 6.1472,5.07812 2.0488,1.692972 3.11841,11.225056 4.67721,16.83798 1.55881,5.612922 -5.16694,8.997812 -7.75081,13.497112 -2.58387,4.4993 -4.00878,2.13789 -6.01357,3.20723 -2.00478,1.06935 -3.74151,0.80155 -5.61266,1.20272 -1.87115,0.40116 -2.40516,0.0888 -3.60814,0.13363 -1.20297,0.0448 -2.13789,-0.0893 -3.20723,-0.13363 -1.06934,-0.0443 -2.583341,-2.7e-4 -3.875407,0 -1.292069,2.6e-4 -19.243143,0.0888 -28.86511,0.13363 -9.621967,0.0448 -2.76152,0.0888 -4.142677,0.13364 -1.381157,0.0448 -2.137891,-0.0894 -3.207234,-0.13364 -1.069343,-0.0443 -2.761522,1.33608 -4.142679,2.00452 -1.381157,0.66844 -0.890633,2.67243 -1.336347,4.00904 -0.445714,1.33662 1.782061,2.93971 2.672694,4.40995 0.890635,1.47025 3.92022,0.80155 5.87993,1.20272 1.959714,0.40116 3.38568,-2.7e-4 5.078122,0 1.692441,2.6e-4 4.632936,0.71245 6.949008,1.06907 2.31607,0.35663 6.949271,4.89968 10.423509,7.34992 3.474241,2.45023 2.851142,6.85965 4.276315,10.28987 1.425173,3.43023 0.267534,3.56333 0.400902,5.34539 0.133371,1.78207 -0.400902,5.47903 -0.400902,5.47903 0,0 -15.501633,-0.13364 -15.501633,-0.13364 0,0 0.08935,-3.47477 0.133633,-5.21175 0.04428,-1.73699 -0.08882,-2.85114 -0.133633,-4.27631 -0.04481,-1.42518 -1.157904,-1.96024 -1.737251,-2.93997 -0.579351,-0.97972 -2.761523,-0.89116 -4.142679,-1.33635 -1.381157,-0.44518 -3.028789,-0.17844 -4.543581,-0.26727 -1.514793,-0.0888 -4.721498,-2.6e-4 -7.082642,0 -2.361147,2.7e-4 -5.434216,-1.69297 -8.151723,-2.53906 -2.717503,-0.84609 -5.077856,-5.52383 -7.617179,-8.28535 -2.539325,-2.76152 -1.692444,-10.06742 -2.539061,-15.10073 -0.846619,-5.03331 4.009305,-6.94927 6.013564,-10.42351 2.004256,-3.47424 7.75108,-3.92022 11.626223,-5.87993 3.875145,-1.95971 3.652948,-2.6e-4 5.479026,0 1.826077,2.6e-4 5.523836,0.17791 8.285355,0.26727 2.76152,0.0894 12.027395,-0.17845 18.040694,-0.26727 6.013299,-0.0888 7.572901,-2.6e-4 11.358953,0 3.78606,2.6e-4 2.40569,-0.0894 3.60814,-0.13364 1.20245,-0.0443 2.3166,-0.0893 3.4745,-0.13363 1.15791,-0.0443 2.67296,-1.96024 4.00905,-2.939967 1.33608,-0.979723 0.17844,-3.652946 0.26726,-5.479023 0.0888,-1.826078 -2.93969,-2.049333 -4.40994,-3.073601 -1.47025,-1.024269 -2.76152,-2.65e-4 -4.14268,0 -1.38116,2.64e-4 -4.988766,-2.65e-4 -7.483546,0 -2.49478,2.64e-4 -7.483282,-0.178443 -11.225321,-0.267269 -3.742036,-0.08883 -40.357697,-0.267269 -40.357697,-0.267269 0,0 0.400905,-14.967094 0.400905,-14.967094 z" />
    <path
       style="fill:#22211f;fill-opacity:1;stroke:none;stroke-width:0.26458332px;stroke-linecap:butt;stroke-linejoin:miter;stroke-opacity:1"
       d="m 68.05187,172.32754 c -0.45025,-4.29457 0.913907,-8.7638 3.741774,-12.02712 2.172914,-2.50751 5.166445,-4.28352 8.399447,-5.02976 3.233001,-0.74625 6.688903,-0.46555 9.77488,0.75344 4.25278,1.67988 7.766147,5.17822 9.398854,9.44933 1.632705,4.27112 1.338845,9.25191 -0.846229,13.26858 -1.806163,3.32015 -4.855609,5.93682 -8.397407,7.25638 -3.541797,1.31957 -7.54483,1.33927 -11.113267,0.0935 -2.921536,-1.0199 -5.548275,-2.87401 -7.478646,-5.29253 -1.930371,-2.41852 -3.156748,-5.39429 -3.479406,-8.47186 z"
       id="path1960"
       inkscape:connector-curvature="0"
       inkscape:path-effect="#path-effect1962"
       inkscape:original-d="m 68.05187,172.32754 c -3.652949,-4.58786 2.49478,-8.01835 3.741774,-12.02712 1.246992,-4.00878 12.116483,-2.85114 18.174327,-4.27632 6.057845,-1.42517 5.702014,15.14501 8.552625,22.71791 2.850614,7.5729 -13.006851,4.89968 -19.510674,7.34992 -6.503824,2.45023 -7.305104,-9.17652 -10.958052,-13.76439 z" />
    <path
       style="fill:#d8d738;fill-opacity:1;stroke:none;stroke-width:0.26458332px;stroke-linecap:butt;stroke-linejoin:miter;stroke-opacity:1"
       d="m 78.341748,167.51669 c 0.678487,-1.04721 1.609316,-1.93219 2.698282,-2.54141 1.088965,-0.60922 2.334773,-0.93989 3.582551,-0.93309 1.870346,0.0102 3.731889,0.80622 5.00038,2.18072 1.268491,1.37449 1.914227,3.31337 1.681357,5.16919 -0.196431,1.56543 -1.000669,3.03503 -2.167568,4.09687 -1.166899,1.06184 -2.681604,1.71919 -4.2469,1.9167 -1.493779,0.18848 -3.051155,-0.0404 -4.387314,-0.73437 -1.336159,-0.69396 -2.436208,-1.86407 -2.962597,-3.27468 -0.358655,-0.96112 -0.449011,-2.01574 -0.297459,-3.03034 0.151552,-1.0146 0.54146,-1.98864 1.099268,-2.84959 z"
       id="path1964"
       inkscape:connector-curvature="0"
       inkscape:path-effect="#path-effect1966"
       inkscape:original-d="m 78.341748,167.51669 c 0.267005,-1.95971 4.187487,-2.3166 6.280833,-3.4745 2.093346,-1.15791 4.454758,4.89967 6.681737,7.34991 2.226982,2.45024 -4.276047,4.00878 -6.414468,6.01357 -2.138421,2.00478 -4.899676,-2.67297 -7.349911,-4.00905 -2.450235,-1.33608 0.534803,-3.92021 0.801809,-5.87993 z" />
    <path
       style="fill:#22211f;fill-opacity:1;stroke:none;stroke-width:0.26458332px;stroke-linecap:butt;stroke-linejoin:miter;stroke-opacity:1"
       d="m 93.175205,181.41471 20.713385,16.43707 4.54359,-4.81085 -20.980662,-16.1698 z"
       id="path1980"
       inkscape:connector-curvature="0"
       inkscape:path-effect="#path-effect1982"
       inkscape:original-d="m 93.175205,181.41471 c 0,0 20.713385,16.43707 20.713385,16.43707 0,0 4.54359,-4.81085 4.54359,-4.81085 0,0 -20.980662,-16.1698 -20.980662,-16.1698 0,0 -4.276313,4.54358 -4.276313,4.54358 z" />
    <path
       style="fill:#22211f;fill-opacity:1;stroke:none;stroke-width:0.26458332px;stroke-linecap:butt;stroke-linejoin:miter;stroke-opacity:1"
       d="m 71.125471,177.40567 4.009043,4.54358 -19.37704,15.50163 -4.944489,-4.81085 z"
       id="path1984"
       inkscape:connector-curvature="0"
       inkscape:path-effect="#path-effect1986"
       inkscape:original-d="m 71.125471,177.40567 c 0,0 4.009043,4.54358 4.009043,4.54358 0,0 -19.37704,15.50163 -19.37704,15.50163 0,0 -4.944489,-4.81085 -4.944489,-4.81085 0,0 20.312486,-15.23436 20.312486,-15.23436 z" />
    <path
       style="fill:#22211f;fill-opacity:1;stroke:none;stroke-width:0.26458332px;stroke-linecap:butt;stroke-linejoin:miter;stroke-opacity:1"
       d="m 53.218413,203.86535 9.354434,24.18789 -2.806333,1.20271 -11.893491,-24.32152 z"
       id="path1988"
       inkscape:connector-curvature="0"
       inkscape:path-effect="#path-effect1990"
       inkscape:original-d="m 53.218413,203.86535 c 0,0 9.354434,24.18789 9.354434,24.18789 0,0 -2.806333,1.20271 -2.806333,1.20271 0,0 -11.893491,-24.32152 -11.893491,-24.32152 0,0 5.34539,-1.06908 5.34539,-1.06908 z" />
    <path
       style="fill:#22211f;fill-opacity:1;stroke:none;stroke-width:0.26458332px;stroke-linecap:butt;stroke-linejoin:miter;stroke-opacity:1"
       d="m 115.89312,203.46444 -9.48807,24.72243 3.0736,1.46999 11.89349,-24.85607 z"
       id="path1992"
       inkscape:connector-curvature="0"
       inkscape:path-effect="#path-effect1994"
       inkscape:original-d="m 115.89312,203.46444 c 0,0 -9.48807,24.72243 -9.48807,24.72243 0,0 3.0736,1.46999 3.0736,1.46999 0,0 11.89349,-24.85607 11.89349,-24.85607 0,0 -5.47902,-1.33635 -5.47902,-1.33635 z" />
    <path
       style="fill:#302f2d;fill-opacity:1;stroke:none;stroke-width:0.26458332px;stroke-linecap:butt;stroke-linejoin:miter;stroke-opacity:1"
       d="m 95.58063,209.34437 c -3.227676,-1.84827 -6.934722,-2.84634 -10.653912,-2.88672 -3.719189,-0.0404 -7.442626,0.87514 -10.727649,2.61945 -3.901563,2.07169 -7.174207,5.31974 -9.244758,9.2219 -2.07055,3.90217 -2.925591,8.444 -2.381464,12.82784 0.552719,4.45306 2.547083,8.71153 5.593563,12.0061 3.046479,3.29457 7.127592,5.61261 11.511685,6.56913 5.545051,1.20982 11.546055,0.19967 16.378918,-2.77601 4.832867,-2.97568 8.439847,-7.88705 9.813497,-13.3938 1.13824,-4.56301 0.75269,-9.49334 -1.08647,-13.82163 -1.83917,-4.3283 -5.122322,-8.0293 -9.20341,-10.36626 z"
       id="path1996"
       inkscape:connector-curvature="0"
       inkscape:path-effect="#path-effect1998"
       inkscape:original-d="m 95.58063,209.34437 c -3.430222,-8.06236 -14.254109,-0.17844 -21.381561,-0.26727 -7.127451,-0.0888 -7.75055,14.69956 -11.626222,22.04974 -3.875675,7.35017 11.403763,12.38322 17.105248,18.57523 5.701485,6.19201 17.461873,-10.78013 26.192415,-16.16981 8.73054,-5.38967 -6.859655,-16.12552 -10.28988,-24.18789 z" />
    <path
       style="fill:#d8d738;fill-opacity:1;stroke:none;stroke-width:0.26458332px;stroke-linecap:butt;stroke-linejoin:miter;stroke-opacity:1"
       d="m 86.553116,217.10747 -0.283483,-2.64583 -3.401785,-0.0945 -0.09449,3.1183 c -1.393515,0.29914 -2.679489,1.0775 -3.590774,2.17337 -0.889933,1.07019 -1.418947,2.44398 -1.433298,3.83577 -0.01435,1.3918 0.495049,2.79015 1.433298,3.81825 0.708911,0.7768 1.632184,1.32711 2.584481,1.77332 0.952296,0.44621 1.946192,0.79937 2.896172,1.25049 0.555799,0.26393 1.104254,0.56734 1.53735,1.00438 0.216547,0.21852 0.402249,0.46953 0.532516,0.74823 0.130267,0.2787 0.204132,0.58564 0.197992,0.89322 -0.0082,0.41242 -0.161527,0.81646 -0.407364,1.14771 -0.245837,0.33124 -0.581149,0.59125 -0.951658,0.77258 -0.741018,0.36267 -1.598071,0.40961 -2.420739,0.34757 -1.676484,-0.12643 -3.318592,-0.68475 -4.724702,-1.6064 l -1.13393,3.59077 c 0.585796,0.41974 1.221699,0.76949 1.889882,1.03944 1.048478,0.42359 2.176548,0.6492 3.307292,0.66145 l -0.09449,3.11831 h 3.779761 l -0.09449,-2.92932 c 2.072791,-0.35543 3.960115,-1.673 5.008184,-3.49628 0.490411,-0.85315 0.80329,-1.81166 0.879222,-2.79278 0.07593,-0.98113 -0.08807,-1.98375 -0.501246,-2.87686 -0.575579,-1.24415 -1.609325,-2.23307 -2.771383,-2.96028 -1.162059,-0.7272 -2.455736,-1.21448 -3.748707,-1.66993 -0.657743,-0.23169 -1.333512,-0.46497 -1.872027,-0.90804 -0.269257,-0.22153 -0.499954,-0.495 -0.645067,-0.81205 -0.145113,-0.31705 -0.201193,-0.67917 -0.12874,-1.02024 0.06521,-0.30697 0.2325,-0.5882 0.456426,-0.80806 0.223927,-0.21985 0.502726,-0.37989 0.798908,-0.4836 0.592364,-0.20742 1.238763,-0.1912 1.862971,-0.12575 1.474997,0.15466 2.921994,0.57269 4.252233,1.22843 l 1.511903,-3.59078 c -0.637793,-0.4998 -1.342487,-0.91412 -2.089348,-1.22842 -0.4004,-0.1685 -0.81523,-0.30611 -1.242665,-0.38364 -0.427436,-0.0775 -0.863785,-0.0888 -1.298195,-0.0888 z"
       id="path2000"
       inkscape:connector-curvature="0"
       inkscape:path-effect="#path-effect2002"
       inkscape:original-d="m 86.553116,217.10747 -0.283483,-2.64583 -3.401785,-0.0945 -0.09449,3.1183 c 0,0 -2.393585,1.44865 -3.590774,2.17337 -1.197189,0.72472 2.65e-4,5.10241 0,7.65402 -2.65e-4,2.5516 3.654033,2.01561 5.480653,3.02381 1.826623,1.0082 1.512171,1.76362 2.267858,2.64583 0.755689,0.88221 -2.519577,1.51164 -3.779761,2.26786 -1.260187,0.75621 -4.724702,-1.6064 -4.724702,-1.6064 l -1.13393,3.59077 c 0,0 1.260187,0.69269 1.889882,1.03944 0.629695,0.34674 3.307292,0.66145 3.307292,0.66145 l -0.09449,3.11831 h 3.779761 l -0.09449,-2.92932 c 0,0 3.339055,-2.33112 5.008184,-3.49628 1.669129,-1.16516 0.252248,-3.78003 0.377976,-5.66964 0.125727,-1.88962 -4.346461,-3.08707 -6.52009,-4.63021 -2.173626,-1.54314 -1.763623,-1.82715 -2.645834,-2.74033 -0.882208,-0.91318 2.079136,-0.9452 3.118305,-1.41741 1.03917,-0.4722 4.252233,1.22843 4.252233,1.22843 l 1.511903,-3.59078 c 0,0 -1.270134,-0.81921 -2.089348,-1.22842 -0.819213,-0.40921 -2.54086,-0.47247 -2.54086,-0.47247 z"
       sodipodi:nodetypes="ccccssscccccccccsssccccscc" />
    <path
       style="fill:none;stroke:#302f2d;stroke-width:1;stroke-linecap:butt;stroke-linejoin:miter;stroke-miterlimit:4;stroke-dasharray:none;stroke-opacity:1"
       d="m 56.551255,75.555387 0.04725,14.693823"
       id="path2020"
       inkscape:connector-curvature="0"
       inkscape:path-effect="#path-effect2022"
       inkscape:original-d="m 56.551255,75.555387 c 2.65e-4,4.897677 0.03176,9.795619 0.04725,14.693823" />
    <path
       style="fill:none;stroke:#302f2d;stroke-width:1;stroke-linecap:butt;stroke-linejoin:miter;stroke-miterlimit:4;stroke-dasharray:none;stroke-opacity:1"
       d="M 69.827671,75.649881 68.929977,90.343706"
       id="path2024"
       inkscape:connector-curvature="0"
       inkscape:path-effect="#path-effect2026"
       inkscape:original-d="m 69.827671,75.649881 c -0.298968,4.881928 -0.598199,9.795618 -0.897694,14.693825" />
    <path
       style="fill:none;stroke:#302f2d;stroke-width:1;stroke-linecap:butt;stroke-linejoin:miter;stroke-miterlimit:4;stroke-dasharray:none;stroke-opacity:1"
       d="m 80.174769,75.649881 0.377975,14.741072"
       id="path2028"
       inkscape:connector-curvature="0"
       inkscape:path-effect="#path-effect2030"
       inkscape:original-d="m 80.174769,75.649881 c 0.126256,4.944924 0.252248,9.827116 0.377975,14.741072" />
    <path
       style="fill:none;stroke:#302f2d;stroke-width:1;stroke-linecap:butt;stroke-linejoin:miter;stroke-miterlimit:4;stroke-dasharray:none;stroke-opacity:1"
       d="m 92.458994,75.413646 0.330729,15.308036"
       id="path2032"
       inkscape:connector-curvature="0"
       inkscape:path-effect="#path-effect2034"
       inkscape:original-d="m 92.458994,75.413646 c 0.110509,5.102413 0.22075,10.205091 0.330729,15.308036" />
    <path
       style="fill:none;stroke:#302f2d;stroke-width:1;stroke-linecap:butt;stroke-linejoin:miter;stroke-miterlimit:4;stroke-dasharray:none;stroke-opacity:1"
       d="m 104.03451,75.224657 -2.17336,15.686012"
       id="path2036"
       inkscape:connector-curvature="0"
       inkscape:path-effect="#path-effect2038"
       inkscape:original-d="m 104.03451,75.224657 c -0.72418,5.244156 -1.44864,10.457078 -2.17336,15.686012" />
    <path
       style="fill:none;stroke:#302f2d;stroke-width:1;stroke-linecap:butt;stroke-linejoin:miter;stroke-miterlimit:4;stroke-dasharray:none;stroke-opacity:1"
       d="m 109.70416,91.052411 8.22098,-13.18192"
       id="path2040"
       inkscape:connector-curvature="0"
       inkscape:path-effect="#path-effect2042"
       inkscape:original-d="m 109.70416,91.052411 c 2.75634,-4.394239 5.48092,-8.788212 8.22098,-13.18192" />
    <path
       style="fill:none;stroke:#302f2d;stroke-width:1;stroke-linecap:butt;stroke-linejoin:miter;stroke-miterlimit:4;stroke-dasharray:none;stroke-opacity:1"
       d="m 113.34218,95.257394 14.55208,-3.96875"
       id="path2044"
       inkscape:connector-curvature="0"
       inkscape:path-effect="#path-effect2046"
       inkscape:original-d="m 113.34218,95.257394 c 4.83521,-1.30743 9.70165,-2.646098 14.55208,-3.96875" />
    <path
       style="fill:none;stroke:#302f2d;stroke-width:1;stroke-linecap:butt;stroke-linejoin:miter;stroke-miterlimit:4;stroke-dasharray:none;stroke-opacity:1"
       d="m 111.4523,100.83254 10.29985,11.43378"
       id="path2048"
       inkscape:connector-curvature="0"
       inkscape:path-effect="#path-effect2050"
       inkscape:original-d="m 111.4523,100.83254 c 3.43355,3.811 6.86683,7.62226 10.29985,11.43378" />
    <path
       style="fill:none;stroke:#302f2d;stroke-width:1;stroke-linecap:butt;stroke-linejoin:miter;stroke-miterlimit:4;stroke-dasharray:none;stroke-opacity:1"
       d="m 103.98727,102.43894 3.49628,15.35529"
       id="path2052"
       inkscape:connector-curvature="0"
       inkscape:path-effect="#path-effect2054"
       inkscape:original-d="m 103.98727,102.43894 c 1.14994,5.13391 2.33111,10.23659 3.49628,15.35529" />
    <path
       style="fill:none;stroke:#302f2d;stroke-width:1;stroke-linecap:butt;stroke-linejoin:miter;stroke-miterlimit:4;stroke-dasharray:none;stroke-opacity:1"
       d="m 93.781911,117.69973 0.09449,-15.0718"
       id="path2056"
       inkscape:connector-curvature="0"
       inkscape:path-effect="#path-effect2058"
       inkscape:original-d="m 93.781911,117.69973 c 0.03176,-5.0242 0.06326,-10.04813 0.09449,-15.0718" />
    <path
       style="fill:none;stroke:#302f2d;stroke-width:1;stroke-linecap:butt;stroke-linejoin:miter;stroke-miterlimit:4;stroke-dasharray:none;stroke-opacity:1"
       d="m 81.922908,102.72243 0.472471,14.74107"
       id="path2060"
       inkscape:connector-curvature="0"
       inkscape:path-effect="#path-effect2062"
       inkscape:original-d="m 81.922908,102.72243 c 0.157755,4.91342 0.315245,9.82711 0.472471,14.74107" />
    <path
       style="fill:none;stroke:#302f2d;stroke-width:1;stroke-linecap:butt;stroke-linejoin:miter;stroke-miterlimit:4;stroke-dasharray:none;stroke-opacity:1"
       d="M 69.922164,117.69973 69.496942,102.76967"
       id="path2064"
       inkscape:connector-curvature="0"
       inkscape:path-effect="#path-effect2066"
       inkscape:original-d="m 69.922164,117.69973 c -0.109979,-4.9927 -0.283217,-9.95364 -0.425222,-14.93006" />
    <path
       style="fill:none;stroke:#302f2d;stroke-width:1;stroke-linecap:butt;stroke-linejoin:miter;stroke-miterlimit:4;stroke-dasharray:none;stroke-opacity:1"
       d="m 54.188905,103.62012 6.614583,14.22135"
       id="path2068"
       inkscape:connector-curvature="0"
       inkscape:path-effect="#path-effect2070"
       inkscape:original-d="m 54.188905,103.62012 c 2.205127,4.75593 4.409987,9.48064 6.614583,14.22135" />
    <path
       style="fill:none;stroke:#302f2d;stroke-width:1;stroke-linecap:butt;stroke-linejoin:miter;stroke-miterlimit:4;stroke-dasharray:none;stroke-opacity:1"
       d="M 56.97648,121.43225 42.140915,114.72317"
       id="path2072"
       inkscape:connector-curvature="0"
       inkscape:path-effect="#path-effect2074"
       inkscape:original-d="m 56.97648,121.43225 c -4.913426,-2.22088 -9.890111,-4.47299 -14.835565,-6.70908" />
    <path
       style="fill:none;stroke:#302f2d;stroke-width:1;stroke-linecap:butt;stroke-linejoin:miter;stroke-miterlimit:4;stroke-dasharray:none;stroke-opacity:1"
       d="m 58.110408,127.19638 -12.756695,9.92188"
       id="path2076"
       inkscape:connector-curvature="0"
       inkscape:path-effect="#path-effect2078"
       inkscape:original-d="m 58.110408,127.19638 c -4.251968,3.32278 -8.5042,6.61432 -12.756695,9.92188" />
    <path
       style="fill:none;stroke:#302f2d;stroke-width:1;stroke-linecap:butt;stroke-linejoin:miter;stroke-miterlimit:4;stroke-dasharray:none;stroke-opacity:1"
       d="M 64.063533,129.3225 62.55163,144.96126"
       id="path2080"
       inkscape:connector-curvature="0"
       inkscape:path-effect="#path-effect2082"
       inkscape:original-d="m 64.063533,129.3225 c -0.487955,5.21266 -1.007671,10.42558 -1.511903,15.63876" />
    <path
       style="fill:none;stroke:#302f2d;stroke-width:1;stroke-linecap:butt;stroke-linejoin:miter;stroke-miterlimit:4;stroke-dasharray:none;stroke-opacity:1"
       d="M 72.001033,145.24475 78.0959,130.73991"
       id="path2084"
       inkscape:connector-curvature="0"
       inkscape:path-effect="#path-effect2086"
       inkscape:original-d="m 72.001033,145.24475 c 2.063385,-4.80372 4.063508,-9.67016 6.094867,-14.50484" />
    <path
       style="fill:none;stroke:#302f2d;stroke-width:1;stroke-linecap:butt;stroke-linejoin:miter;stroke-miterlimit:4;stroke-dasharray:none;stroke-opacity:1"
       d="m 90.994338,144.29981 -14.363097,5.4334"
       id="path2088"
       inkscape:connector-curvature="0"
       inkscape:path-effect="#path-effect2090"
       inkscape:original-d="m 90.994338,144.29981 c -4.787435,1.82662 -9.575134,3.622 -14.363097,5.4334" />
    <path
       style="fill:#302f2d;fill-opacity:1;stroke:none;stroke-width:0.26458332px;stroke-linecap:butt;stroke-linejoin:miter;stroke-opacity:1"
       d="m 118.83308,206.93895 c -1.92156,-0.0706 -3.81171,-0.86663 -5.18891,-2.20854 -1.3772,-1.34191 -2.22383,-3.21981 -2.29464,-5.14137 -0.0562,-1.52525 0.37053,-3.06429 1.20154,-4.34451 0.83101,-1.28022 2.06213,-2.29607 3.47568,-2.87177 1.68308,-0.68548 3.61411,-0.736 5.33449,-0.15039 1.72038,0.58561 3.21683,1.80033 4.15358,3.35762 0.84367,1.40254 1.23311,3.07733 1.07282,4.70619 -0.16029,1.62887 -0.87316,3.20181 -2.00826,4.38098 -1.47143,1.52856 -3.62603,2.3497 -5.7463,2.27179 z"
       id="path1972"
       inkscape:connector-curvature="0"
       inkscape:path-effect="#path-effect1974"
       inkscape:original-d="m 118.83308,206.93895 c -1.9157,0.75753 -4.98877,-4.90021 -7.48355,-7.34991 -2.49478,-2.44971 3.11841,-4.81112 4.67722,-7.21628 1.55881,-2.40516 6.32564,2.13789 9.48807,3.20723 3.16242,1.06935 -0.62337,6.05785 -0.93544,9.08717 -0.31209,3.02932 -3.8306,1.51426 -5.7463,2.27179 z" />
    <path
       style="fill:#302f2d;fill-opacity:1;stroke:none;stroke-width:0.26458332px;stroke-linecap:butt;stroke-linejoin:miter;stroke-opacity:1"
       d="m 56.158376,203.73171 c 1.26762,-1.68638 1.667613,-3.95574 1.202713,-6.01356 -0.378711,-1.67631 -1.311684,-3.22495 -2.626629,-4.33146 -1.314945,-1.1065 -3.005565,-1.76202 -4.723281,-1.81574 -2.071249,-0.0648 -4.157485,0.76294 -5.612892,2.23809 -1.455407,1.47515 -2.255529,3.57744 -2.137926,5.64636 0.129298,2.27468 1.369667,4.45063 3.234402,5.7597 1.864735,1.30906 4.309762,1.73849 6.520936,1.18931 1.626314,-0.40392 3.135802,-1.3332 4.142677,-2.6727 z"
       id="path1968"
       inkscape:connector-curvature="0"
       inkscape:path-effect="#path-effect1970"
       inkscape:original-d="m 56.158376,203.73171 c 1.38063,-0.89063 0.802073,-4.0093 1.202713,-6.01356 0.40064,-2.00426 -4.899675,-4.0984 -7.34991,-6.1472 -2.450238,-2.0488 -5.166948,5.25604 -7.750818,7.88445 -2.583871,2.62842 6.503823,4.63241 9.755338,6.94901 3.251515,2.3166 2.762049,-1.78206 4.142677,-2.6727 z" />
  </g>
</svg>
